<svg width="408" height="433" viewBox="0 0 408 433" fill="none" xmlns="http://www.w3.org/2000/svg">
<path d="M99.6522 129.051C90.7246 131.443 81.5482 126.145 79.1561 117.217C76.7639 108.29 82.0619 99.1131 90.9895 96.721C99.9171 94.3289 109.094 99.6269 111.486 108.554C113.878 117.482 108.58 126.658 99.6522 129.051Z" fill="#27AAE1"/>
<path d="M99.2825 96.8674C99.3083 96.7862 99.3279 96.7071 99.3412 96.6308C99.5259 96.6765 99.7092 96.7253 99.8918 96.7771C99.674 96.7763 99.4549 96.7985 99.2825 96.8674Z" fill="#27AAE1"/>
<path d="M99.0101 97.0826C98.9254 97.2293 98.7072 97.5331 98.4354 97.8972C97.8199 98.4237 96.8902 99.1986 96.2235 99.6595C95.1426 100.407 91.3741 100.684 91.3741 100.684C91.3741 100.684 89.1452 103.295 88.6286 104.439C88.1121 105.584 84.9269 103.601 85.0626 102.741C85.1983 101.881 83.2848 101.571 83.2848 101.571L83.1858 101.353C85.2389 99.1861 87.8962 97.5406 90.9912 96.7113C93.8249 95.952 96.6829 95.9701 99.3419 96.6303C99.3284 96.7065 99.3091 96.7853 99.2833 96.8662C99.1643 96.9139 99.0676 96.9831 99.0101 97.0826Z" fill="#E6E6E6"/>
<path d="M95.296 128.641C96.485 127.956 96.8768 127.028 98.3738 126.81C99.8709 126.592 101.227 126.869 102.484 126.44C103.742 126.012 105.244 124.786 105.244 124.786L105.62 125.509L106.454 125.372C104.565 127.058 102.267 128.342 99.6542 129.042C97.2086 129.697 94.7451 129.772 92.4066 129.357C93.4545 129.22 94.6834 128.994 95.296 128.641Z" fill="#E6E6E6"/>
<path d="M110.401 115.35C109.602 113.734 109.923 111.177 108.919 113.917C107.915 116.656 105.687 115.515 105.885 114.547C106.083 113.578 106.35 112.867 106.286 111.603C106.222 110.339 105.776 109.36 105.354 108.467C104.932 107.573 103.56 107.575 102.581 108.02C101.602 108.466 102.15 109.142 101.389 111.085C100.628 113.027 100.41 111.53 99.892 111.303C99.3736 111.076 99.6114 109.914 99.4849 108.759C99.3583 107.603 100.718 106.873 100.791 106.121C100.865 105.37 99.4844 103.635 97.9858 102.481C96.4871 101.327 96.577 100.296 96.577 100.296C96.577 100.296 97.7034 98.8762 98.4353 97.8967C98.8172 97.5699 99.0785 97.3382 99.0785 97.3382C99.1709 97.1713 99.2355 97.0151 99.2829 96.8658C99.4548 96.7972 99.6731 96.7749 99.8908 96.7758C105.365 98.3349 109.907 102.646 111.487 108.544C112.206 111.228 112.226 113.932 111.665 116.47C111.155 116.261 110.678 115.911 110.401 115.35Z" fill="#006838"/>
<path d="M99.2832 96.8652C99.2356 97.0146 99.1712 97.1707 99.0788 97.3376C99.0788 97.3376 98.8174 97.5691 98.4355 97.8961C98.7076 97.532 98.9255 97.2282 99.0102 97.0815C99.0677 96.982 99.1644 96.9129 99.2832 96.8652Z" fill="#006838"/>
<path d="M82.7425 101.839C83.2658 101.898 83.7694 102.091 84.0934 102.544C84.9718 103.773 84.8275 106.648 87.0135 106.612C89.6409 106.567 92.4041 105.899 92.4041 105.899C92.4041 105.899 93.7111 108.386 92.2489 109.418C90.7867 110.45 89.3736 109.273 88.6237 110.572C87.8737 111.871 86.5139 112.602 87.5399 113.699C88.5659 114.797 90.519 114.914 88.3847 115.486C86.2505 116.058 85.3113 116.309 84.9453 114.943C84.5793 113.577 83.7726 110.225 82.666 113.266C81.5593 116.308 81.3964 118.09 80.686 119.196C80.5258 119.445 80.3538 119.721 80.1748 119.987C79.7626 119.106 79.4172 118.18 79.1568 117.208C77.6548 111.603 79.1861 105.9 82.7425 101.839Z" fill="#006838"/>
<path d="M92.0133 104.458C92.8712 104.228 95.2785 102.302 94.527 102.229C93.7755 102.156 91.5145 101.572 91.3392 102.626C91.164 103.679 90.3059 104.916 92.0133 104.458Z" fill="#E6E7E8"/>
<path d="M83.9642 125.174C84.4872 124.694 84.952 124.283 85.0586 124.255C85.0586 124.255 88.1958 124.695 88.9186 124.319C89.6415 123.942 90.0822 125.928 90.0822 125.928C90.0822 125.928 89.0837 123.909 89.1097 126.738C89.1149 127.31 89.0488 127.854 88.9271 128.348C87.1024 127.592 85.4204 126.517 83.9642 125.174Z" fill="#006838"/>
<path d="M87.1564 122.869C87.5833 122.755 89.8701 121.044 89.8701 121.044L90.6702 118.908C90.6702 118.908 90.3954 117.884 91.1563 115.941C91.9171 113.999 91.7368 110.936 91.3926 113.407C91.0482 115.879 90.1001 118.146 89.8669 118.3C89.6337 118.454 87.8013 119.128 87.8013 119.128C87.8013 119.128 86.2371 120.462 86.3118 121.082C86.3866 121.703 86.7464 122.704 86.7464 122.704L87.1564 122.869Z" fill="#006838"/>
<path d="M90.7558 113.762C90.4355 112.566 89.2509 112.243 89.2509 112.243L88.9278 113.428C88.9278 113.428 89.4583 114.383 89.8228 114.377C90.1873 114.372 90.7558 113.762 90.7558 113.762Z" fill="#006838"/>
<path d="M101.759 116.578C101.759 116.578 102.779 117.312 103.622 117.726C104.465 118.141 105.371 118.447 106.708 117.631C108.044 116.816 108.215 116.77 108.353 117.282C108.49 117.794 108.115 118.444 108.673 118.477C109.231 118.511 110.682 118.122 110.682 118.122C110.682 118.122 109.898 119.979 107.958 120.591C106.018 121.202 104.777 121.351 103.694 120.727C102.611 120.102 101.08 119.506 100.805 118.481C100.53 117.457 100.07 118.129 100.381 116.216C100.692 114.302 98.806 113.069 98.7373 112.813C98.6687 112.557 99.2661 112.397 100.326 112.936C101.385 113.476 101.785 114.284 101.899 114.711C102.013 115.137 101.759 116.578 101.759 116.578Z" fill="#006838"/>
<path d="M103.402 116.23C102.792 115.661 102.272 117.814 102.335 113.953C102.398 110.093 102.086 110.635 102.398 110.093C102.711 109.552 104.092 107.535 104.527 109.157C104.962 110.779 104.32 112.141 104.349 112.59C104.378 113.04 104.238 114.907 104.398 115.505C104.558 116.103 103.402 116.23 103.402 116.23Z" fill="#006838"/>
<path d="M115.499 113.903C118.488 109.35 114.378 109.72 114.378 109.72C114.378 109.72 115.164 110.607 114.852 111.148C114.539 111.689 113.08 110.342 113.082 111.714C113.083 113.086 113.164 114.071 112.613 114.402C112.061 114.732 111.309 114.659 110.456 114.888C109.602 115.117 109.204 115.681 108.898 116.587C108.591 117.492 107.75 118.45 106.998 118.377C106.246 118.304 104.993 117.725 104.795 118.693C104.597 119.661 104.284 120.202 104.034 120.635C103.785 121.068 103.079 121.166 102.589 121.388C102.1 121.611 101.59 123.12 101.037 123.451C103.707 122.827 112.509 118.456 115.499 113.903Z" fill="#E6E6E6"/>
<path d="M77.0422 111.763C77.0422 111.763 79.4371 110.115 80.2986 111.622C81.1601 113.13 82.1572 113.778 82.1572 113.778C82.1572 113.778 83.8524 112.592 84.8558 113.604C85.8592 114.616 88.1764 114.727 88.8135 114.373C89.4507 114.02 87.42 115.662 86.1395 116.005C84.8589 116.348 83.6056 115.769 82.6498 116.299C81.694 116.83 80.1298 118.164 79.1662 116.958C78.2026 115.753 77.3947 116.152 76.8808 114.917C76.367 113.682 76.0239 112.402 77.0422 111.763Z" fill="#E6E6E6"/>
<path d="M106.345 96.7057C106.345 96.7057 102.358 95.4863 101.847 96.9956C101.336 98.5049 101.561 100.366 101.048 100.504C100.536 100.641 99.4599 100.38 99.4784 101.474C99.4968 102.567 98.0975 103.491 97.5623 103.542C97.027 103.594 97.1229 102.928 95.8151 104.194C94.5074 105.459 93.2097 106.081 92.481 106.094C91.7524 106.106 89.1102 105.807 90.7279 106.38C92.3456 106.954 94.2526 106.9 94.2526 106.9C94.2526 106.9 95.457 104.564 97.3868 104.596C99.3167 104.628 100.508 105.316 101.389 104.164C102.27 103.013 101.416 103.242 102.616 101.914C103.815 100.586 104.197 100.301 105.204 100.305C106.212 100.31 106.957 100.018 107.349 99.0899C107.741 98.1615 107.09 96.4145 106.345 96.7057Z" fill="#E6E6E6"/>
<path d="M80.2496 122.706C80.2496 122.706 81.3744 120.757 83.2666 122.355C85.1587 123.952 85.4774 123.775 86.758 123.432C88.0385 123.089 88.7154 122.542 89.9229 122.95C91.1304 123.359 93.3501 122.764 93.3501 122.764C93.3501 122.764 91.3362 124.127 89.2644 124.591C87.1926 125.054 87.0553 124.542 84.944 125.199C82.8326 125.856 82.3598 125.8 81.6023 125.363C80.8445 124.925 79.6537 124.238 79.5165 123.725C79.379 123.213 80.2496 122.706 80.2496 122.706Z" fill="#E6E6E6"/>
<path d="M332.253 309.032C332.328 314.958 337.194 319.702 343.12 319.627C349.046 319.551 353.79 314.686 353.715 308.76C353.64 302.833 348.774 298.09 342.848 298.165C336.922 298.24 332.178 303.105 332.253 309.032Z" fill="#662D91"/>
<path d="M146.752 413.07C146.78 415.283 148.597 417.054 150.81 417.026C153.023 416.998 154.794 415.182 154.766 412.969C154.738 410.756 152.922 408.985 150.709 409.012C148.496 409.04 146.724 410.857 146.752 413.07Z" fill="#1C75BC"/>
<path d="M324.548 308.811C324.526 307.044 327.986 305.451 333.199 304.514C333.193 304.538 333.19 304.562 333.187 304.587C330.096 305.47 328.148 306.735 328.166 308.119C328.198 310.663 334.853 312.642 343.029 312.539C351.206 312.436 357.809 310.289 357.776 307.744C357.759 306.365 355.793 305.153 352.697 304.348C352.693 304.323 352.689 304.297 352.683 304.273C357.901 305.078 361.388 306.58 361.411 308.345C361.445 311.068 353.221 313.381 343.042 313.51C332.863 313.638 324.583 311.535 324.548 308.811Z" fill="#27AAE1"/>
<path d="M90.9383 191.682L91.3149 193.11L90.3522 194.23L91.8268 194.313L92.5945 195.575L93.129 194.198L94.5662 193.858L93.4221 192.924L93.5427 191.452L92.3009 192.252L90.9383 191.682Z" fill="#27AAE1"/>
<path d="M339.515 337.265L339.222 338.237L338.256 338.546L339.089 339.125L339.085 340.14L339.893 339.526L340.857 339.844L340.523 338.886L341.123 338.067L340.108 338.089L339.515 337.265Z" fill="#27AAE1"/>
<path d="M135.925 52.7334L136.545 53.5367L136.235 54.5029L137.191 54.1615L138.013 54.7553L137.984 53.7407L138.803 53.1414L137.829 52.8562L137.512 51.8923L136.94 52.7299L135.925 52.7334Z" fill="#27AAE1"/>
<path d="M171.987 330.86L171.617 331.805L170.629 332.036L171.413 332.68L171.327 333.691L172.182 333.144L173.117 333.538L172.861 332.556L173.525 331.789L172.512 331.729L171.987 330.86Z" fill="#27AAE1"/>
<path d="M37.5612 95.9775L37.1911 96.9223L36.2031 97.1529L36.9876 97.7969L36.9012 98.8081L37.7562 98.2611L38.6916 98.655L38.4351 97.6732L39.0988 96.9058L38.0863 96.8457L37.5612 95.9775Z" fill="#27AAE1"/>
<path d="M332.362 73.5458L331.992 74.4909L331.004 74.7215L331.788 75.3653L331.702 76.3767L332.557 75.8297L333.492 76.2234L333.236 75.2418L333.9 74.4742L332.887 74.4143L332.362 73.5458Z" fill="#27AAE1"/>
<path d="M333.069 96.342L332.418 96.5407L331.886 96.1177L331.874 96.7981L331.307 97.1735L331.95 97.3952L332.132 98.0505L332.542 97.5073L333.221 97.5364L332.831 96.9795L333.069 96.342Z" fill="#27AAE1"/>
<path d="M325.458 68.1504L324.807 68.3493L324.274 67.9263L324.262 68.6065L323.695 68.9821L324.339 69.204L324.521 69.8594L324.93 69.3156L325.61 69.345L325.22 68.7878L325.458 68.1504Z" fill="#27AAE1"/>
<path d="M145.446 126.731L146.363 126.297L147.241 126.806L147.111 125.8L147.867 125.123L146.87 124.935L146.459 124.007L145.973 124.897L144.963 125.001L145.659 125.739L145.446 126.731Z" fill="#27AAE1"/>
<path d="M188.387 37.0027L189.305 36.5685L190.182 37.0779L190.052 36.0714L190.809 35.3942L189.811 35.2062L189.401 34.2783L188.914 35.1687L187.905 35.2727L188.601 36.0105L188.387 37.0027Z" fill="#27AAE1"/>
<path d="M160.561 109.652L161.171 109.954L161.268 110.627L161.744 110.14L162.414 110.255L162.098 109.652L162.414 109.05L161.743 109.165L161.269 108.678L161.171 109.351L160.561 109.652Z" fill="#27AAE1"/>
<path d="M146.773 135.393L147.383 135.694L147.481 136.367L147.956 135.88L148.626 135.995L148.31 135.393L148.627 134.79L147.956 134.906L147.482 134.419L147.383 135.091L146.773 135.393Z" fill="#27AAE1"/>
<path d="M37.1564 154.928L37.7662 155.229L37.8639 155.902L38.3388 155.415L39.0093 155.531L38.6931 154.928L39.0096 154.326L38.3389 154.441L37.8643 153.954L37.7664 154.627L37.1564 154.928Z" fill="#27AAE1"/>
<path d="M178.969 330.104L178.318 330.303L177.786 329.879L177.774 330.56L177.207 330.935L177.85 331.157L178.033 331.812L178.442 331.269L179.121 331.298L178.732 330.741L178.969 330.104Z" fill="#27AAE1"/>
<path d="M209.362 317.858L208.711 318.056L208.179 317.633L208.167 318.314L207.6 318.689L208.243 318.911L208.425 319.566L208.834 319.023L209.514 319.052L209.124 318.495L209.362 317.858Z" fill="#27AAE1"/>
<path d="M312.174 290.346L311.524 290.545L310.991 290.122L310.979 290.802L310.412 291.177L311.055 291.399L311.238 292.055L311.647 291.511L312.326 291.54L311.937 290.983L312.174 290.346Z" fill="#27AAE1"/>
<path d="M341.975 257.25L341.324 257.449L340.792 257.026L340.78 257.706L340.213 258.082L340.856 258.304L341.039 258.959L341.448 258.415L342.127 258.445L341.737 257.888L341.975 257.25Z" fill="#27AAE1"/>
<path d="M53.7603 204.914L53.1095 205.113L52.5773 204.69L52.5652 205.37L51.998 205.746L52.6412 205.968L52.8241 206.623L53.2329 206.079L53.9124 206.109L53.5226 205.552L53.7603 204.914Z" fill="#27AAE1"/>
<path d="M54.4557 280.069L54.0856 281.014L53.0976 281.245L53.8821 281.889L53.7957 282.9L54.6508 282.353L55.5862 282.747L55.3296 281.765L55.9933 280.998L54.9808 280.937L54.4557 280.069Z" fill="#27AAE1"/>
<path d="M315.948 263.436L315.578 264.381L314.59 264.612L315.374 265.256L315.288 266.267L316.143 265.72L317.078 266.114L316.822 265.132L317.485 264.365L316.473 264.305L315.948 263.436Z" fill="#27AAE1"/>
<path d="M163.563 378.546L164.075 378.995L163.995 379.67L164.58 379.322L165.198 379.607L165.048 378.943L165.509 378.442L164.831 378.381L164.499 377.788L164.23 378.413L163.563 378.546Z" fill="#27AAE1"/>
<path d="M119.739 370.632L120.251 371.081L120.171 371.756L120.756 371.408L121.374 371.692L121.224 371.029L121.684 370.528L121.007 370.467L120.674 369.874L120.406 370.498L119.739 370.632Z" fill="#27AAE1"/>
<path d="M138.7 389.504L139.698 389.321L140.414 390.04L140.549 389.034L141.454 388.575L140.539 388.136L140.381 387.133L139.681 387.868L138.679 387.708L139.161 388.601L138.7 389.504Z" fill="#27AAE1"/>
<path d="M251.178 377.266L252.176 377.083L252.893 377.802L253.027 376.796L253.932 376.337L253.017 375.898L252.86 374.895L252.16 375.63L251.158 375.47L251.64 376.362L251.178 377.266Z" fill="#27AAE1"/>
<path d="M300.344 341.237L299.974 342.182L298.986 342.413L299.771 343.057L299.684 344.068L300.54 343.521L301.475 343.915L301.218 342.933L301.882 342.166L300.87 342.105L300.344 341.237Z" fill="#27AAE1"/>
<path d="M368.415 318.679L368.045 319.623L367.057 319.854L367.841 320.498L367.755 321.509L368.61 320.962L369.545 321.356L369.289 320.374L369.952 319.607L368.94 319.547L368.415 318.679Z" fill="#27AAE1"/>
<path d="M324.222 298.548C323.155 298.834 322.058 298.201 321.772 297.134C321.486 296.066 322.119 294.969 323.186 294.683C324.254 294.397 325.351 295.03 325.637 296.098C325.923 297.165 325.29 298.262 324.222 298.548Z" fill="#27AAE1"/>
<path d="M46.3497 107.827C49.1961 107.064 50.8854 104.138 50.1227 101.292C49.43 98.7066 46.9536 97.0765 44.3724 97.3699C44.648 97.2569 44.9324 97.1583 45.2276 97.0792C48.9799 96.0738 52.8365 98.3006 53.8419 102.053C54.8473 105.805 52.6208 109.662 48.8684 110.667C45.1161 111.672 41.2595 109.446 40.2541 105.694C40.175 105.398 40.1184 105.103 40.0782 104.808C41.1148 107.19 43.7647 108.519 46.3497 107.827Z" fill="#FBB040"/>
</svg>
