<?xml version="1.0" encoding="UTF-8"?>
<svg id="Layer_2" data-name="Layer 2" xmlns="http://www.w3.org/2000/svg" viewBox="0 0 735.4 266.42">
  <defs>
    <style>
      .cls-1 {
        fill: #fff;
      }

      .cls-2 {
        fill: none;
        stroke: #fff;
        stroke-miterlimit: 10;
      }

      .cls-3 {
        fill: #010000;
      }
    </style>
  </defs>
  <g id="Layer_1-2" data-name="Layer 1">
    <g>
      <path class="cls-1" d="m20.68,197.73H0v-94.62c0-15.42,8.76-25.76,27.16-25.76,16.47,0,23.83,8.41,28.74,21.9l34.52,75.52c1.4,2.8,3.68,4.91,7.53,4.91,4.38,0,7.01-2.63,7.01-6.66v-93.56h20.85v94.44c0,15.59-8.94,25.93-27.16,25.93-16.47,0-24-8.41-28.91-21.9l-34.52-75.52c-1.58-3.5-3.68-5.08-7.36-5.08-4.73,0-7.18,2.63-7.18,6.83v93.56Z"/>
      <path class="cls-1" d="m248.64,79.47v20.68h-59.22c-12.44,0-17.87,5.78-17.87,14.89,0,9.64,6.13,14.02,18.05,14.02h58.17v18.75h-58.7c-11.92,0-18.05,4.73-18.05,14.37s5.78,14.89,17.87,14.89h59.92v20.67h-59.92c-28.03,0-39.42-13.84-39.42-32.24,0-13.49,6.13-22.6,17-27.16-11.04-4.56-16.64-13.67-16.64-26.63,0-18.92,11.74-32.24,39.6-32.24h59.22Z"/>
      <path class="cls-1" d="m336.91,84.33c34.34,0,53.44,19.62,53.44,59.4s-18.92,58.87-53.44,58.87h-16.12c-34.52,0-53.44-19.27-53.44-58.87s19.1-59.4,53.44-59.4h16.12Zm-16.12,20.68c-22.78,0-32.76,11.56-32.76,38.72s9.81,38.2,32.76,38.2h16.12c22.78,0,32.59-11.21,32.59-38.37s-9.81-38.55-32.59-38.55h-16.12Z"/>
      <path class="cls-1" d="m422.81,197.73h-22.08l36.62-98.47c4.56-13.49,12.09-21.9,27.86-21.9,17.52,0,26.28,10.34,26.28,25.76v69.91c0,4.03,2.45,6.66,5.96,6.66,3.15,0,5.61-1.93,6.66-4.91l28.74-75.52c4.56-13.49,12.09-21.9,27.86-21.9,17.52,0,26.28,10.34,26.28,25.76v94.62h-20.85v-93.56c0-4.21-2.45-6.83-5.96-6.83-2.98,0-5.43,2.1-6.48,5.08l-28.74,75.52c-4.56,13.49-12.26,21.9-28.03,21.9-17.35,0-26.11-10.34-26.11-25.93v-69.74c0-4.21-2.63-6.83-6.13-6.83-3.15,0-5.26,2.1-6.48,5.08l-35.39,95.32Z"/>
      <path class="cls-1" d="m627.29,197.73h-22.78l41.53-105.13c4.38-11.04,12.44-15.24,24.88-15.24s20.33,4.21,24.53,15.24l39.95,105.13h-22.95l-35.92-95.14c-1.05-2.8-2.98-4.03-5.78-4.03s-4.73,1.23-5.96,4.03l-37.5,95.14Z"/>
      <circle class="cls-1" cx="224.47" cy="24.84" r="24.34"/>
      <circle class="cls-1" cx="459.25" cy="258.64" r="7.79"/>
      <circle class="cls-2" cx="25.31" cy="24.84" r="24.34"/>
      <circle class="cls-2" cx="158.09" cy="24.84" r="24.34"/>
      <path class="cls-1" d="m133.75,24.84c0-13.44,10.89-24.33,24.33-24.34l-.87,10.88c-.72,8.96-.72,17.96,0,26.92l.87,10.88c-13.44,0-24.33-10.9-24.33-24.34Z"/>
      <circle class="cls-2" cx="91.7" cy="24.84" r="24.34"/>
      <path class="cls-1" d="m67.36,24.84c0-9.41,5.35-17.57,13.17-21.62h0c-2.12,6.85-3.31,13.97-3.33,21.15,0,.27,0,.54,0,.81.02,6.93,1.11,13.82,3.09,20.47l.24.82c-7.82-4.05-13.17-12.21-13.17-21.62Z"/>
      <g>
        <g>
          <path class="cls-3" d="m516.14,265.99v-21.61l-11.51,21.61h-4.44l-11.51-21.61v21.61h-8.18v-40.89h7.65l14.25,27.86,14.25-27.86h7.65v40.89h-8.18Z"/>
          <path class="cls-3" d="m549.66,250.16c0-9.93,6.19-16.12,16.12-16.12,5.14,0,9.23,1.63,11.97,4.73,2.75,3.15,3.91,7.71,3.1,13.14l-.23,1.58h-23.19c0,3.62,3.97,5.9,8.7,5.9,3.39,0,6.31-1.4,8.06-3.45l4.79,4.79c-2.86,3.56-7.59,5.55-13.2,5.55-9.93,0-16.12-6.19-16.12-16.12Zm7.65-2.86h16.53c-.18-1.52-.7-2.75-1.52-3.74-1.34-1.58-3.8-2.39-7.07-2.34-3.1.06-7.48,1.05-7.94,6.07Z"/>
          <path class="cls-3" d="m619.87,233.98c3.27,0,6.19.7,8.59,2.04v-13.32h7.36v43.28h-6.25l-.41-2.22c-2.57,1.64-5.72,2.45-9.29,2.45-9.75,0-15.83-6.19-15.83-16.12s6.08-16.12,15.83-16.12Zm.29,25c5.78,0,8.59-2.92,8.59-8.88s-2.8-8.88-8.59-8.88-8.59,2.86-8.59,8.88,2.8,8.88,8.59,8.88Z"/>
          <path class="cls-3" d="m666.89,222.47c2.45,0,3.86,1.34,3.91,3.91.06,2.51-1.46,3.91-3.91,3.91s-3.91-1.4-3.91-3.91,1.34-3.91,3.91-3.91Zm3.68,11.74v31.78h-7.36v-31.78h7.36Z"/>
          <path class="cls-3" d="m711.98,233.98c3.56,0,6.72.82,9.29,2.45l.41-2.28h6.25v31.83h-6.25l-.41-2.22c-2.57,1.58-5.72,2.45-9.29,2.45-9.75,0-15.83-6.19-15.83-16.12s6.08-16.12,15.83-16.12Zm.29,25c5.78,0,8.59-2.92,8.59-8.88s-2.8-8.94-8.59-8.94-8.59,2.92-8.59,8.94,2.8,8.88,8.59,8.88Z"/>
        </g>
        <g>
          <path class="cls-1" d="m516.14,265.99v-21.61l-11.51,21.61h-4.44l-11.51-21.61v21.61h-8.18v-40.89h7.65l14.25,27.86,14.25-27.86h7.65v40.89h-8.18Z"/>
          <path class="cls-1" d="m549.66,250.16c0-9.93,6.19-16.12,16.12-16.12,5.14,0,9.23,1.63,11.97,4.73,2.75,3.15,3.91,7.71,3.1,13.14l-.23,1.58h-23.19c0,3.62,3.97,5.9,8.7,5.9,3.39,0,6.31-1.4,8.06-3.45l4.79,4.79c-2.86,3.56-7.59,5.55-13.2,5.55-9.93,0-16.12-6.19-16.12-16.12Zm7.65-2.86h16.53c-.18-1.52-.7-2.75-1.52-3.74-1.34-1.58-3.8-2.39-7.07-2.34-3.1.06-7.48,1.05-7.94,6.07Z"/>
          <path class="cls-1" d="m619.87,233.98c3.27,0,6.19.7,8.59,2.04v-13.32h7.36v43.28h-6.25l-.41-2.22c-2.57,1.64-5.72,2.45-9.29,2.45-9.75,0-15.83-6.19-15.83-16.12s6.08-16.12,15.83-16.12Zm.29,25c5.78,0,8.59-2.92,8.59-8.88s-2.8-8.88-8.59-8.88-8.59,2.86-8.59,8.88,2.8,8.88,8.59,8.88Z"/>
          <path class="cls-1" d="m666.89,222.47c2.45,0,3.86,1.34,3.91,3.91.06,2.51-1.46,3.91-3.91,3.91s-3.91-1.4-3.91-3.91,1.34-3.91,3.91-3.91Zm3.68,11.74v31.78h-7.36v-31.78h7.36Z"/>
          <path class="cls-1" d="m711.98,233.98c3.56,0,6.72.82,9.29,2.45l.41-2.28h6.25v31.83h-6.25l-.41-2.22c-2.57,1.58-5.72,2.45-9.29,2.45-9.75,0-15.83-6.19-15.83-16.12s6.08-16.12,15.83-16.12Zm.29,25c5.78,0,8.59-2.92,8.59-8.88s-2.8-8.94-8.59-8.94-8.59,2.92-8.59,8.94,2.8,8.88,8.59,8.88Z"/>
        </g>
      </g>
    </g>
  </g>
</svg>