<svg width="25" height="27" viewBox="0 0 25 27" fill="none" xmlns="http://www.w3.org/2000/svg">
<path d="M24.9454 13.4113L24.8703 13.3967C24.5209 13.3235 24.173 13.2519 23.8236 13.1819L23.1867 13.0518L22.914 12.9933L22.6309 12.9347L21.4662 12.7037L20.337 12.4792L18.1109 12.0432L15.7108 11.5844L15.4441 11.534L15.6342 11.2363L16.1266 10.4668L16.5866 9.74291C16.6677 9.61439 16.7502 9.48587 16.8313 9.35573L17.0554 9.00108C17.135 8.87256 17.2161 8.74567 17.2971 8.61716L17.5183 8.26576L17.8883 7.68012C17.8971 7.66385 17.9074 7.6492 17.9163 7.63456C17.8264 7.69638 17.735 7.75983 17.6436 7.82002C17.4244 7.96643 17.2072 8.1161 16.992 8.26902C16.7665 8.4317 16.5409 8.583 16.3168 8.74405L16.246 8.79447L16.1443 8.86769L16.0455 8.93926L15.7226 9.17027L15.3954 9.40452C15.3394 9.44682 15.2819 9.48749 15.2303 9.52328L15.018 9.68596L14.9516 9.73477L14.844 9.81285L14.7172 9.90559C14.6789 9.9365 14.6391 9.96414 14.5993 9.99342H14.589L14.5742 10.0048H14.5669L14.5551 10.0146C14.5359 10.0292 14.5153 10.0422 14.4961 10.0585H14.4858L14.4696 10.0699H14.4622L14.4342 10.091L14.3988 10.1154H14.3899C14.3319 9.79007 14.275 9.46471 14.219 9.13935C14.1571 8.78634 14.0937 8.43332 14.0317 8.0803C13.9 7.33089 13.7683 6.5804 13.6366 5.82882C13.5806 5.50346 13.5236 5.1781 13.4656 4.85274C13.4007 4.48345 13.3374 4.11255 13.271 3.74164C13.2047 3.37073 13.1325 2.96402 13.0646 2.57522C13.0057 2.2401 12.9481 1.90497 12.8877 1.57147C12.8199 1.18918 12.7506 0.806879 12.6828 0.432715C12.6665 0.33836 12.6489 0.245636 12.6312 0.151281L12.6047 0C12.5958 0.0520576 12.5855 0.104115 12.5767 0.16268C12.5531 0.287944 12.531 0.414825 12.5089 0.540089C12.4396 0.922387 12.3703 1.30307 12.3025 1.68699C12.2435 2.01235 12.186 2.35559 12.1271 2.69071C12.0592 3.08006 11.9899 3.46887 11.9192 3.85714L11.7245 4.96823C11.6685 5.29359 11.6115 5.61895 11.5536 5.94431C11.4238 6.69427 11.2896 7.44749 11.1584 8.19745L10.9727 9.25487C10.9255 9.5298 10.8769 9.80309 10.8253 10.078L10.7545 10.026L10.5423 9.87304L10.4685 9.81936L10.442 9.79984H10.4317L10.3255 9.72176H10.3182L10.2134 9.64528H10.2017H10.1943H10.1825L10.1486 9.61927L10.0926 9.5786H10.0808H10.0734L10.0395 9.55257L10.0115 9.53142H10.0041L9.98942 9.52004L9.92895 9.47611L9.91571 9.46797C9.91571 9.46797 9.9157 9.46797 9.90685 9.46797L9.8921 9.45822H9.88173L9.76238 9.37037H9.75497L9.62964 9.27763L9.52203 9.19954L9.45422 9.15075L9.24194 8.98807L9.07681 8.86932C8.96919 8.79123 8.8601 8.70663 8.75101 8.63505L8.42672 8.40241L8.3294 8.33247C8.29549 8.30806 8.26159 8.28204 8.22768 8.25927L8.15692 8.2072C7.93284 8.04452 7.7058 7.89159 7.48172 7.73217L7.43162 7.69801C7.34316 7.63511 7.25466 7.57329 7.16621 7.51255C7.20012 7.56461 7.23405 7.61829 7.26648 7.67523C7.28123 7.69638 7.2945 7.71916 7.30924 7.74194L7.53182 8.09659C7.6129 8.22673 7.69548 8.35523 7.77656 8.48375L8.23654 9.20769C8.39969 9.46472 8.56379 9.72066 8.72891 9.97553L8.96775 10.3497C9.04589 10.4717 9.12256 10.5937 9.20069 10.7141C9.35843 10.9565 9.5147 11.2021 9.67391 11.4397C9.70045 11.4819 9.72843 11.5226 9.75497 11.5633L9.77858 11.6007L7.73827 11.9928L5.33818 12.4564C4.59713 12.5996 3.85509 12.7449 3.11208 12.8924L1.98287 13.1153C1.59367 13.1933 1.20589 13.2682 0.818169 13.3495L0.53664 13.4064L0.262381 13.4634L0 13.5187H0.0147567C0.107633 13.5399 0.202007 13.5594 0.296358 13.5773C0.68408 13.657 1.07179 13.74 1.46098 13.8099L2.5902 14.0344C3.33222 14.1808 4.07427 14.3256 4.8163 14.4688L7.21638 14.9324L9.44832 15.3635L9.90685 15.4513L9.61201 15.9296L9.13727 16.6959C8.98985 16.9448 8.82918 17.1936 8.67586 17.4442L8.21444 18.1958L7.98884 18.565L7.7559 18.9506L7.71314 19.0189C7.65712 19.1149 7.59968 19.2109 7.54218 19.3069L7.62324 19.2467L7.64534 19.2304L7.722 19.1735H7.72941L7.74266 19.1637L7.77217 19.1425L7.78542 19.1328H7.79276L7.80608 19.123H7.81781L7.90189 19.0612H7.91074L8.02275 18.9799L8.13331 18.8985L8.25425 18.8091L8.27188 18.796H8.2793L8.37806 18.7245H8.3854L8.48272 18.6529L8.50043 18.6399L8.61985 18.552L8.74957 18.4577L8.85423 18.3812H8.86604L8.9147 18.3454H8.92348L9.00756 18.2836C9.04589 18.2576 9.08271 18.2283 9.11661 18.2039C9.21244 18.1356 9.30682 18.064 9.40117 17.994C9.44982 17.9599 9.49699 17.9241 9.54859 17.8883C9.60019 17.8525 9.612 17.8411 9.64296 17.8167L9.76087 17.7305L9.84199 17.6703L9.9319 17.6036L10.1265 17.4604L10.2076 17.3986L10.3005 17.3303L10.383 17.2685L10.4611 17.2099C10.5142 17.1676 10.5688 17.1269 10.6233 17.0863L10.8326 16.9236L10.899 17.3075C10.9609 17.6605 11.0228 18.0119 11.0862 18.365C11.2179 19.1165 11.3496 19.8676 11.4813 20.6181C11.5388 20.9434 11.5948 21.2688 11.6523 21.5941C11.7172 21.9651 11.7806 22.336 11.8469 22.7052C11.9132 23.0745 11.9855 23.4829 12.0533 23.8717C12.1123 24.2068 12.1698 24.5419 12.2302 24.877C12.298 25.2593 12.3673 25.64 12.4351 26.0158C12.4853 26.2956 12.5354 26.5721 12.5826 26.8503L12.6091 27L12.6312 26.8747C12.6578 26.7348 12.6828 26.5949 12.7079 26.455C12.7757 26.0727 12.8449 25.6904 12.9128 25.3163L13.0897 24.3125C13.1575 23.9243 13.2263 23.5354 13.2961 23.1461C13.3624 22.7752 13.4258 22.4059 13.4907 22.035C13.5482 21.7096 13.6042 21.3843 13.6617 21.0589C13.7934 20.3073 13.9251 19.5563 14.0568 18.8058C14.1187 18.4528 14.1821 18.0998 14.2425 17.7484C14.2985 17.4344 14.3516 17.1204 14.4076 16.8065L14.4194 16.8162L14.4534 16.8406L14.4829 16.8618C14.4888 16.8646 14.4942 16.8684 14.4991 16.8732L14.5595 16.9171L14.5728 16.9268H14.5816L14.5978 16.9366H14.6081L14.7275 17.0228L14.8529 17.1156L14.962 17.1936L15.0283 17.2425L15.2406 17.4051L15.4057 17.5239L15.733 17.7581L16.0559 17.9891L16.1531 18.0607L16.2549 18.1323C16.2741 18.1486 16.3006 18.1665 16.3257 18.1844C16.5497 18.347 16.7767 18.5097 17.0008 18.661L17.2455 18.8237L17.3561 18.9002L17.2676 18.7537C17.2499 18.7245 17.2337 18.6952 17.216 18.6675L16.9816 18.2804C16.9079 18.1567 16.8342 18.0347 16.7576 17.9111L16.2946 17.1595C16.1472 16.909 15.988 16.6601 15.8347 16.4128C15.6814 16.1655 15.5178 15.9003 15.3586 15.6466L15.2656 15.4969L17.564 15.0528C18.305 14.9096 19.0475 14.7643 19.7915 14.6168L20.9193 14.3939C21.3085 14.3158 21.6962 14.241 22.0839 14.1613L22.367 14.1027L22.6397 14.0458L23.2766 13.914L24.3985 13.6863L24.801 13.6017L24.8629 13.5886L25 13.5594L24.9454 13.4113Z" fill="#FEBA02"/>
</svg>
