<svg width="462" height="229" viewBox="0 0 462 229" fill="none" xmlns="http://www.w3.org/2000/svg">
<g opacity="0.5">
<path d="M118.325 37.4355C119.337 37.2283 120.393 36.9315 121.425 36.8483C122.684 36.7441 123.955 36.6988 125.221 36.6565C127.631 36.5733 130.04 36.5841 132.45 36.6539C137.587 36.8019 142.721 37.2006 147.823 37.8163C158.536 39.1236 169.14 41.2101 179.55 44.0592C189.018 46.6379 198.495 49.6946 207.313 54.0432C216.132 58.3919 224.29 63.931 232.098 69.8629C247.66 81.672 261.999 95.2839 279.097 104.938C283.356 107.361 287.779 109.481 292.336 111.282C297.147 113.169 302.133 114.554 307.153 115.755C316.784 118.087 326.623 119.458 336.525 119.846C355.697 120.559 374.519 117.114 393.195 113.151C395.613 112.637 398.008 112.163 400.455 111.797C401.151 111.691 401.265 112.764 400.645 112.974C395.856 114.606 390.888 115.727 385.949 116.823C381.22 117.873 376.466 118.791 371.689 119.575C362.411 121.084 353.04 122.062 343.633 122.151C333.996 122.24 324.372 121.401 314.895 119.646C304.836 117.785 294.876 115.104 285.591 110.748C267.848 102.424 253.077 89.2031 237.983 76.9481C230.361 70.7643 222.559 64.758 214.13 59.7014C205.701 54.6449 196.664 50.879 187.294 47.8806C177.178 44.6631 166.843 42.1826 156.369 40.4587C146.089 38.7479 135.688 37.7434 125.257 37.8214C124.096 37.8301 122.931 37.8521 121.771 37.899C120.644 37.9436 119.507 37.7994 118.377 37.7591C118.201 37.7526 118.13 37.4752 118.325 37.4355Z" fill="#FEBA02"/>
<path d="M342.69 193.155C336.212 195.394 329.265 195.922 322.523 194.687C315.765 193.463 309.325 190.754 303.412 187.308C291.078 180.123 280.654 169.88 271.583 158.96C259.782 144.757 250.471 128.691 239.209 114.076C232.901 105.892 225.971 98.1492 218.005 91.5424C210.266 85.1169 201.516 79.8871 192.44 75.5816C184.233 71.7182 175.673 68.6518 166.88 66.4245C157.934 64.1311 148.836 62.753 139.699 61.4855C137.408 61.1677 135.141 60.8373 132.873 60.3956C132.165 60.2571 132.27 59.1412 132.997 59.1353C142.174 59.0914 151.507 60.7772 160.453 62.6734C169.249 64.5121 177.866 67.12 186.205 70.467C195.085 74.0476 203.558 78.5631 211.481 83.9372C220.041 89.7775 227.599 96.8984 234.344 104.746C241.034 112.502 246.973 120.859 252.746 129.307C258.061 137.087 263.195 145.022 268.91 152.515C277.364 163.596 287.088 174.05 298.521 182.106C304.246 186.139 310.512 189.578 317.209 191.678C323.692 193.718 330.543 194.314 337.281 193.422C339.027 193.19 340.754 192.83 342.448 192.347C342.977 192.199 343.211 192.984 342.694 193.161L342.69 193.155Z" fill="#FEBA02"/>
<path d="M116.907 66.8224C116.936 66.8069 116.963 66.7898 116.989 66.771C117.147 66.6414 117.246 66.4549 117.267 66.2522L121.036 28.8506C121.054 28.6483 120.993 28.4466 120.864 28.2892C120.736 28.1318 120.55 28.0313 120.348 28.0094L38.3633 19.7472C37.8768 19.6342 35.1861 19.1378 28.5017 20.0806C28.3316 20.1054 28.1746 20.1861 28.0554 20.31C27.9363 20.4339 27.8617 20.594 27.8436 20.7649L24.3202 55.7269C24.3041 55.8936 24.3426 56.0611 24.4297 56.2041C24.5169 56.3471 24.6481 56.4579 24.8037 56.52C30.2631 58.672 33.9251 58.6852 34.4348 58.6786L116.423 66.9344C116.592 66.9523 116.763 66.9129 116.907 66.8224ZM119.425 29.4582L115.811 65.3287L34.534 57.1321C34.4984 57.129 34.4625 57.1278 34.4268 57.1285C34.3956 57.1298 31.0442 57.2187 25.9024 55.2855L29.3096 21.5152C35.7333 20.6628 38.0031 21.2381 38.0244 21.243C38.066 21.2554 38.1088 21.2638 38.152 21.2681L119.425 29.4582Z" fill="#231F20"/>
<path d="M117.569 60.2664C117.598 60.2509 117.625 60.2337 117.651 60.215C117.808 60.0853 117.908 59.8989 117.929 59.6962L120.376 35.4065C120.395 35.2037 120.334 35.0015 120.205 34.8437C120.076 34.6859 119.89 34.5853 119.688 34.5636L37.7034 26.3031C37.2159 26.1884 34.5252 25.692 27.8408 26.6348C27.6706 26.6596 27.5136 26.7403 27.3945 26.8642C27.2753 26.9881 27.2008 27.1482 27.1827 27.3191L24.982 49.1709C24.9662 49.3372 25.0047 49.5041 25.0917 49.6468C25.1786 49.7894 25.3094 49.9001 25.4644 49.9623C30.9249 52.116 34.5777 52.1327 35.0949 52.1236L117.088 60.3833C117.257 60.3991 117.426 60.3579 117.569 60.2664ZM118.766 36.0114L116.473 58.7727L35.1942 50.577C35.1588 50.5743 35.1234 50.5736 35.0879 50.5751C35.0541 50.5758 31.7064 50.667 26.5652 48.7311L28.6466 28.0662C35.0693 27.212 37.339 27.7874 37.3614 27.7939C37.4029 27.8051 37.4452 27.8129 37.488 27.8174L118.766 36.0114Z" fill="#231F20"/>
<path d="M25.5092 56.449C25.6454 56.3652 25.751 56.2398 25.8102 56.0913C25.8497 55.9823 25.8671 55.8666 25.8617 55.7508L29.3258 21.4264C29.4442 21.3421 29.5341 21.2237 29.5833 21.0869C29.6325 20.96 29.6474 20.8225 29.6265 20.6881C29.6056 20.5536 29.5496 20.4271 29.4642 20.3212C29.3789 20.2138 29.2658 20.1318 29.1372 20.084C29.0087 20.0362 28.8695 20.0245 28.7347 20.05L28.72 20.0593C28.6619 20.0637 28.6026 20.0712 28.5422 20.0816C28.3988 20.1007 28.1913 20.1303 27.9352 20.1698C27.4786 20.2391 26.7641 20.349 25.9602 20.4945C20.0231 21.5077 13.1828 25.6882 10.5182 27.4338C6.58629 30.0173 1.91256 33.7417 1.72302 35.7307C1.49305 38.0123 6.80925 43.3529 9.10717 45.5434C12.7869 49.053 18.2076 53.5038 22.386 55.4883C22.947 55.7532 23.739 56.0949 24.7404 56.5085L24.7802 56.5246L24.8173 56.5401C24.9319 56.579 25.0539 56.591 25.1739 56.5752C25.2938 56.5594 25.4086 56.5162 25.5092 56.449ZM27.7404 21.7352L24.4184 54.687C23.8518 54.4462 23.3841 54.2392 23.0217 54.0691C19.6685 52.483 14.7368 48.783 10.1531 44.4105C5.25927 39.7437 3.16354 36.6044 3.23906 35.8651C3.31882 35.0707 5.95034 32.2451 11.3481 28.6994C16.7458 25.1537 22.2811 22.6545 26.2033 21.9862C26.766 21.8893 27.3024 21.8088 27.7404 21.7352Z" fill="#004AB8"/>
<path d="M57.8468 54.1437C58.4238 53.7817 58.9777 53.3841 59.5053 52.9534C61.142 51.6236 62.4987 49.9824 63.4968 48.1247C64.4949 46.2671 65.1146 44.2299 65.32 42.1312C65.5375 40.0333 65.3368 37.9132 64.7293 35.8935C64.1218 33.8738 63.1196 31.9947 61.7809 30.365C60.4506 28.7282 58.8089 27.3714 56.9508 26.3733C55.0927 25.3751 53.0552 24.7553 50.956 24.5497C48.8585 24.3322 46.7388 24.5331 44.7195 25.1407C42.7003 25.7484 40.8216 26.7506 39.1925 28.0894C37.555 29.4192 36.1976 31.0606 35.199 32.9186C34.2003 34.7767 33.5802 36.8143 33.3745 38.9137C33.1576 41.0114 33.359 43.1313 33.967 45.1507C34.5751 47.17 35.5777 49.0487 36.9169 50.6778C38.2463 52.315 39.8873 53.6722 41.7448 54.6707C43.6024 55.6693 45.6396 56.2894 47.7385 56.4952C51.276 56.8618 54.8344 56.0341 57.8468 54.1437ZM41.664 28.2072C44.3884 26.4985 47.6063 25.7507 50.805 26.083C52.7029 26.2688 54.5451 26.8292 56.2249 27.7318C57.9047 28.6344 59.3887 29.8613 60.5912 31.3414C61.8019 32.815 62.7082 34.5143 63.2577 36.3407C63.8071 38.1671 63.9887 40.0843 63.792 41.9814C63.6057 43.8791 63.045 45.7211 62.1425 47.4009C61.2399 49.0806 60.0133 50.5648 58.5336 51.7676C57.0601 52.9779 55.3611 53.8839 53.535 54.4332C51.7089 54.9824 49.792 55.164 47.8952 54.9674C45.9973 54.7819 44.155 54.2216 42.4751 53.319C40.7953 52.4163 39.3113 51.1893 38.1091 49.709C36.8986 48.2357 35.9923 46.5369 35.4428 44.711C34.8932 42.8851 34.7113 40.9683 34.9076 39.0716C35.0934 37.1733 35.654 35.3307 36.5567 33.6505C37.4594 31.9702 38.6864 30.4857 40.1666 29.2828C40.64 28.8939 41.1373 28.5349 41.6554 28.208L41.664 28.2072ZM55.4185 50.2515C55.83 49.9933 56.2248 49.7092 56.6003 49.401C57.7691 48.4521 58.7379 47.2806 59.4507 45.9546C60.1635 44.6285 60.6061 43.1742 60.7529 41.6759C60.9091 40.1779 60.7662 38.6637 60.3325 37.2213C59.8988 35.779 59.1828 34.4371 58.2263 33.2736C57.2771 32.1045 56.1052 31.1356 54.7785 30.4231C53.4518 29.7106 51.9968 29.2687 50.4979 29.1231C49.0005 28.9669 47.487 29.1097 46.0452 29.5431C44.6034 29.9765 43.262 30.6918 42.0989 31.6477C40.9298 32.5969 39.9606 33.7688 39.2477 35.0953C38.5348 36.4218 38.0922 37.8766 37.9457 39.3754C37.7905 40.8731 37.9338 42.3867 38.3674 43.8286C38.8009 45.2706 39.516 46.6123 40.4713 47.7761C41.421 48.9448 42.5929 49.9135 43.9193 50.6264C45.2458 51.3393 46.7004 51.7821 48.199 51.9293C50.7217 52.1901 53.2592 51.6002 55.4082 50.2534L55.4185 50.2515ZM44.0949 32.1069C45.9575 30.9382 48.1577 30.4264 50.3449 30.6531C51.6425 30.7793 52.9021 31.1619 54.0507 31.7786C55.1993 32.3953 56.2141 33.2339 57.0362 34.2457C57.8639 35.2532 58.4835 36.415 58.859 37.6638C59.2344 38.9125 59.3584 40.2233 59.2235 41.5203C59.0959 42.8177 58.7125 44.077 58.0954 45.2254C57.4783 46.3738 56.6398 47.3885 55.6282 48.2109C54.6206 49.0382 53.459 49.6576 52.2105 50.0333C50.9621 50.409 49.6516 50.5336 48.3547 50.3999C47.0575 50.272 45.7985 49.8883 44.6504 49.271C43.5023 48.6538 42.4879 47.8151 41.6657 46.8036C40.8384 45.7959 40.219 44.6343 39.8433 43.3859C39.4676 42.1375 39.343 40.827 39.4767 39.5301C39.6037 38.2325 39.9868 36.973 40.604 35.8245C41.2211 34.6761 42.06 33.6614 43.072 32.8394C43.3948 32.575 43.7335 32.3306 44.0863 32.1077L44.0949 32.1069Z" fill="#FEBA02"/>
<path d="M55.4071 50.2526C55.8186 49.9944 56.2134 49.7104 56.5889 49.4022C57.7577 48.4529 58.7266 47.2812 59.4396 45.9551C60.1527 44.6289 60.5958 43.1745 60.7432 41.6761C60.899 40.178 60.7558 38.664 60.3221 37.2216C59.8884 35.7793 59.1727 34.4374 58.2165 33.2737C57.2674 32.1046 56.0954 31.1357 54.7687 30.4232C53.442 29.7107 51.987 29.2688 50.4882 29.1232C48.9908 28.9671 47.4773 29.1098 46.0355 29.5432C44.5937 29.9766 43.2523 30.6919 42.0891 31.6478C40.92 32.597 39.9509 33.7689 39.238 35.0954C38.525 36.4219 38.0825 37.8767 37.9359 39.3756C37.7808 40.8732 37.9241 42.3868 38.3576 43.8288C38.7911 45.2707 39.5062 46.6124 40.4615 47.7762C41.4112 48.9449 42.5832 49.9137 43.9096 50.6266C45.236 51.3394 46.6906 51.7822 48.1893 51.9294C50.715 52.1919 53.2558 51.6017 55.4071 50.2526ZM44.0835 32.1081C45.9461 30.9393 48.1463 30.4275 50.3335 30.6542C51.6311 30.7805 52.8907 31.1631 54.0393 31.7798C55.1879 32.3965 56.2027 33.235 57.0248 34.2469C57.8526 35.2544 58.4721 36.4162 58.8476 37.6649C59.223 38.9136 59.347 40.2244 59.2121 41.5214C59.0846 42.8188 58.7011 44.0781 58.084 45.2265C57.4669 46.3749 56.6284 47.3896 55.6169 48.2121C54.6092 49.0393 53.4476 49.6587 52.1992 50.0344C50.9507 50.4102 49.6402 50.5348 48.3434 50.4011C47.0461 50.2731 45.7871 49.8894 44.639 49.2722C43.4909 48.6549 42.4765 47.8163 41.6543 46.8047C40.827 45.7971 40.2077 44.6355 39.8319 43.3871C39.4562 42.1386 39.3316 40.8281 39.4653 39.5313C39.5923 38.2337 39.9754 36.9742 40.5926 35.8257C41.2097 34.6772 42.0486 33.6626 43.0606 32.8406C43.3866 32.5751 43.7288 32.3301 44.0851 32.107L44.0835 32.1081Z" fill="#FEBA02"/>
<path d="M47.6884 51.6702C47.804 51.5996 47.899 51.4999 47.9639 51.3811L57.7263 33.476C57.8041 33.3322 57.8344 33.1675 57.8128 33.0054C57.7913 32.8434 57.7189 32.6923 57.6062 32.5739C56.1126 31.0172 54.2094 29.9145 52.1161 29.393C51.9512 29.3533 51.7779 29.3688 51.6227 29.4372C51.4676 29.5056 51.3391 29.623 51.2572 29.7715L41.3505 47.9383C41.2699 48.0878 41.2407 48.2596 41.2675 48.4273C41.2942 48.5951 41.3753 48.7493 41.4984 48.8664C43.0665 50.3448 45.0218 51.3481 47.1372 51.76C47.3257 51.7997 47.5223 51.7677 47.6884 51.6702ZM56.0914 33.254L46.8826 50.1407C45.4523 49.7762 44.1219 49.0954 42.9895 48.1486L52.3098 31.0573C53.7185 31.4981 55.0106 32.2487 56.0914 33.254Z" fill="#FEBA02"/>
<path d="M148.341 45.2602C149.022 44.844 149.669 44.3742 150.276 43.8554C150.411 43.7317 150.498 43.5641 150.521 43.3822C150.545 43.2004 150.503 43.0163 150.403 42.8626C145.877 36.1704 139.758 34.308 135.423 33.9243C132.602 33.663 129.757 33.9286 127.034 34.7076C126.892 34.7544 126.767 34.841 126.674 34.9571C126.581 35.0731 126.523 35.2136 126.507 35.3617L125.508 45.2616C125.493 45.4183 125.526 45.576 125.603 45.7135C125.68 45.851 125.797 45.9618 125.938 46.0311C133.299 49.5948 139.515 48.8267 143.433 47.5538C145.156 46.992 146.804 46.2218 148.341 45.2602ZM148.719 43.1347C146.95 44.4344 144.981 45.4373 142.889 46.1041C137.757 47.7524 132.441 47.3374 127.089 44.869L127.981 36.0296C130.386 35.4304 132.873 35.2363 135.342 35.4552C140.905 35.962 145.404 38.545 148.719 43.1347Z" fill="#231F20"/>
<path d="M143.723 43.0325C143.82 42.9713 143.902 42.8892 143.963 42.7923C144.025 42.6955 144.064 42.5862 144.078 42.4724C144.092 42.3526 144.078 42.2311 144.037 42.1176C143.996 42.0042 143.929 41.9018 143.842 41.8188C138.468 36.7767 131.043 36.1403 127.096 36.212C126.908 36.2173 126.728 36.2911 126.59 36.4194C126.452 36.5478 126.366 36.7219 126.348 36.9092L125.663 43.7048C125.646 43.8911 125.696 44.0775 125.805 44.2295C125.914 44.3815 126.075 44.4888 126.257 44.5316C136.686 46.8999 143.415 43.2145 143.697 43.056L143.723 43.0325ZM127.805 37.7447C131.412 37.7676 137.323 38.4512 141.912 42.1764C139.783 43.0341 134.476 44.6454 127.259 43.1682L127.805 37.7447Z" fill="#231F20"/>
<path d="M126.57 47.0351L126.613 47.0084C126.701 46.9451 126.775 46.8635 126.83 46.7692C126.884 46.6749 126.917 46.57 126.928 46.4616L128.167 34.1661C128.178 34.0578 128.166 33.9486 128.132 33.8454C128.097 33.7422 128.041 33.6474 127.968 33.5672C127.894 33.4874 127.804 33.4241 127.703 33.3815C127.603 33.3389 127.495 33.318 127.386 33.3201L124.74 33.38C124.553 33.3857 124.373 33.4595 124.236 33.5876C124.099 33.7157 124.013 33.8894 123.994 34.0762L122.82 45.7342C122.803 45.921 122.853 46.1078 122.963 46.26C123.073 46.4122 123.234 46.5194 123.417 46.5616L126.001 47.1431C126.197 47.1822 126.402 47.1435 126.57 47.0351ZM126.549 34.8744L125.484 45.4413L124.418 45.1966L125.457 34.8947L126.549 34.8744Z" fill="#231F20"/>
<path d="M123.919 47.1279C124.018 47.0653 124.101 46.981 124.163 46.8814C124.225 46.7818 124.263 46.6694 124.275 46.5528L125.585 33.542C125.604 33.3392 125.543 33.137 125.414 32.9792C125.285 32.8215 125.099 32.7208 124.897 32.6992L120.929 32.3C120.697 32.2754 120.462 32.2972 120.238 32.3642C120.014 32.4312 119.806 32.5419 119.625 32.6901C119.444 32.8377 119.294 33.0197 119.183 33.2255C119.072 33.4313 119.003 33.657 118.979 33.8896L117.872 44.8944C117.847 45.126 117.87 45.3601 117.936 45.5831C118.003 45.8062 118.114 46.0137 118.261 46.1938C118.409 46.3765 118.591 46.5279 118.798 46.6391C119.004 46.7504 119.231 46.8193 119.464 46.8418L123.435 47.2416C123.604 47.2579 123.774 47.2179 123.919 47.1279ZM123.978 34.1519L122.823 45.6342L119.618 45.3134C119.586 45.3102 119.555 45.3004 119.527 45.2848C119.499 45.2691 119.474 45.2479 119.454 45.2223C119.434 45.1986 119.419 45.1711 119.41 45.1416C119.401 45.112 119.398 45.0809 119.401 45.0501L120.511 34.0443C120.514 34.0127 120.523 33.9821 120.538 33.9542C120.553 33.9263 120.574 33.9017 120.598 33.8819C120.648 33.8424 120.71 33.8236 120.773 33.8294L123.978 34.1519Z" fill="#231F20"/>
<path d="M146.74 61.131C147.422 60.7147 148.069 60.2449 148.676 59.7262C148.811 59.6025 148.898 59.4348 148.921 59.253C148.944 59.0712 148.902 58.8871 148.802 58.7334C144.276 52.0411 138.158 50.1788 133.833 49.7889C131.011 49.5276 128.166 49.7926 125.442 50.5705C125.3 50.6174 125.176 50.704 125.082 50.82C124.989 50.9361 124.931 51.0766 124.916 51.2247L123.918 61.1235C123.903 61.2803 123.936 61.4379 124.013 61.5755C124.09 61.713 124.207 61.8238 124.348 61.8931C131.707 65.4578 137.922 64.6907 141.84 63.4194C143.561 62.8587 145.206 62.0902 146.74 61.131ZM147.119 59.0055C145.349 60.3052 143.38 61.3081 141.289 61.9748C136.156 63.6232 130.842 63.2071 125.491 60.736L126.381 51.8977C128.785 51.2995 131.272 51.1057 133.74 51.3244C139.296 51.8379 143.803 54.4158 147.119 59.0055Z" fill="#231F20"/>
<path d="M142.124 58.9017C142.22 58.8404 142.302 58.7583 142.364 58.6615C142.425 58.5646 142.464 58.4553 142.478 58.3415C142.492 58.2217 142.478 58.1002 142.437 57.9867C142.396 57.8733 142.329 57.771 142.242 57.688C136.873 52.6454 129.445 52.0084 125.498 52.0801C125.31 52.0854 125.13 52.1592 124.992 52.2876C124.855 52.4159 124.768 52.59 124.75 52.7774L124.064 59.5712C124.047 59.7575 124.097 59.9439 124.206 60.0959C124.315 60.2479 124.476 60.3553 124.658 60.398C135.084 62.7684 141.814 59.082 142.094 58.9245L142.124 58.9017ZM126.207 53.6128C129.814 53.6357 135.728 54.3199 140.313 58.0455C138.185 58.9022 132.878 60.5161 125.659 59.0373L126.207 53.6128Z" fill="#231F20"/>
<path d="M124.973 62.9033L125.015 62.8766C125.103 62.8126 125.177 62.7309 125.231 62.6367C125.285 62.5425 125.319 62.4379 125.33 62.3298L126.57 50.0342C126.581 49.926 126.568 49.8167 126.534 49.7136C126.5 49.6104 126.444 49.5156 126.37 49.4354C126.296 49.3556 126.206 49.2923 126.106 49.2497C126.005 49.2071 125.897 49.1862 125.788 49.1882L123.143 49.2481C122.955 49.2539 122.776 49.3277 122.638 49.4558C122.501 49.5839 122.415 49.7575 122.396 49.9444L121.223 61.6024C121.205 61.7891 121.255 61.976 121.364 62.1284C121.474 62.2808 121.635 62.3882 121.817 62.4308L124.403 63.014C124.6 63.0524 124.804 63.0128 124.973 62.9033ZM124.952 50.7425L123.887 61.3095L122.82 61.0648L123.857 50.7735L124.952 50.7425Z" fill="#231F20"/>
<path d="M122.314 62.9989C122.413 62.9366 122.497 62.8526 122.559 62.7532C122.621 62.6539 122.659 62.5418 122.672 62.4254L123.98 49.413C124.001 49.2096 123.94 49.0064 123.811 48.8478C123.681 48.6905 123.495 48.5908 123.292 48.5701L119.324 48.171C119.092 48.1467 118.857 48.1689 118.634 48.2361C118.41 48.3034 118.202 48.4144 118.022 48.5628C117.84 48.7098 117.689 48.8914 117.578 49.097C117.467 49.3025 117.398 49.5281 117.375 49.7606L116.267 60.7654C116.221 61.2344 116.362 61.7027 116.66 62.068C116.958 62.4332 117.388 62.6657 117.857 62.7148L121.829 63.1136C121.999 63.1299 122.169 63.0896 122.314 62.9989ZM122.374 50.0228L121.218 61.5052L118.011 61.1838C117.948 61.1763 117.89 61.1444 117.85 61.0948C117.81 61.0452 117.791 60.9819 117.797 60.9185L118.897 49.923C118.904 49.8585 118.935 49.7992 118.986 49.758C119.009 49.7381 119.037 49.7232 119.067 49.7144C119.097 49.7055 119.128 49.7028 119.159 49.7065L122.374 50.0228Z" fill="#231F20"/>
<path d="M116.825 29.0335C116.853 29.0181 116.881 29.0009 116.907 28.9821C117.065 28.8525 117.165 28.6656 117.186 28.4623L118.545 14.6261C119.221 7.74445 117.657 2.7073 114.254 0.807903C111.45 -0.750395 107.792 0.00100021 103.94 2.93405L76.3415 23.7875C76.2186 23.8809 76.1265 24.009 76.0769 24.1552C76.0274 24.3014 76.0227 24.4591 76.0635 24.608C76.1058 24.7564 76.1914 24.8887 76.3094 24.9881C76.4274 25.0874 76.5725 25.1493 76.7259 25.1656L116.34 29.1552C116.51 29.1704 116.681 29.1276 116.825 29.0335ZM106.219 3.21386C109.026 1.45452 111.573 1.0703 113.501 2.14553C116.307 3.70874 117.617 8.31838 117.011 14.4708L115.728 27.5382L78.8321 23.8225L104.867 4.15295C105.326 3.80347 105.775 3.49236 106.219 3.21386Z" fill="#004AB8"/>
<path d="M116.825 29.0328C116.853 29.0174 116.881 29.0002 116.907 28.9814C117.065 28.8518 117.165 28.6649 117.186 28.4615L118.368 16.5037C118.961 10.469 117.58 6.0479 114.577 4.37235C112.111 2.98834 108.875 3.65387 105.492 6.22861L81.5605 24.3059C81.438 24.3997 81.3463 24.528 81.2972 24.6744C81.2482 24.8207 81.244 24.9783 81.2852 25.127C81.3274 25.2754 81.4131 25.4078 81.5311 25.5071C81.6491 25.6065 81.7941 25.6683 81.9475 25.6846L116.343 29.1497C116.512 29.1655 116.682 29.1243 116.825 29.0328ZM107.583 6.63952C109.995 5.12784 112.177 4.79454 113.821 5.71201C116.229 7.05466 117.355 11.0326 116.834 16.3484L115.738 27.5399L84.054 24.3528L106.416 7.45817C106.808 7.15424 107.196 6.88203 107.58 6.64156L107.583 6.63952Z" fill="#004AB8"/>
<path d="M106.495 91.7589C109.402 89.9369 111.367 85.6882 111.989 79.7585L113.415 65.928C113.435 65.7253 113.375 65.5228 113.247 65.3644C113.117 65.2063 112.93 65.1059 112.727 65.0851L73.1151 61.0945C72.9614 61.0796 72.8067 61.111 72.671 61.1847C72.5353 61.2584 72.4247 61.371 72.3535 61.508C72.2836 61.6457 72.2564 61.8011 72.2755 61.9544C72.2947 62.1076 72.3592 62.2516 72.4608 62.3678L95.346 88.3117C98.537 91.945 101.971 93.4164 105.018 92.4476C105.537 92.2813 106.034 92.0499 106.495 91.7589ZM111.803 66.5505L110.455 79.6128C109.82 85.7629 107.613 90.0166 104.553 90.9893C102.121 91.7649 99.259 90.4557 96.5006 87.3048L74.9076 62.8322L111.803 66.5505Z" fill="#004AB8"/>
<path d="M107.35 88.404C109.909 86.7998 111.639 83.0711 112.172 77.8819L113.404 65.934C113.424 65.7314 113.363 65.5289 113.235 65.3705C113.106 65.2124 112.919 65.112 112.715 65.0912L78.3223 61.6268C78.1686 61.6118 78.0139 61.6432 77.8782 61.7169C77.7425 61.7906 77.6319 61.9032 77.5607 62.0402C77.4908 62.1779 77.4637 62.3333 77.4828 62.4866C77.5019 62.6398 77.5665 62.7838 77.6681 62.9L97.5061 85.3853C100.308 88.5842 103.339 89.8745 106.038 89.014C106.499 88.8672 106.94 88.6622 107.35 88.404ZM111.803 66.5494L110.649 77.7291C110.099 83.0451 108.204 86.7176 105.579 87.5544C103.499 88.2169 101.044 87.0882 98.6682 84.3759L80.1175 63.3468L111.803 66.5494Z" fill="#004AB8"/>
<path d="M383.563 139.025C382.131 140.151 380.7 141.318 379.168 142.298C377.675 143.239 376.129 144.092 374.538 144.854C371.355 146.412 368.061 147.732 364.682 148.803C357.95 150.938 350.935 152.067 343.885 152.372C329.637 152.986 315.263 150.304 302.027 145.042C288.395 139.627 276.425 130.99 265.548 121.259C253.948 110.881 243.598 99.23 232.41 88.4312C221.305 77.7243 209.142 67.7811 195.22 60.9705C193.527 60.1429 191.895 59.2043 190.185 58.4036C189.937 58.285 190.134 57.9174 190.383 58.0264C192.209 58.8228 193.97 59.742 195.804 60.5333C197.54 61.2907 199.253 62.0968 200.944 62.9517C204.363 64.6801 207.68 66.6019 210.88 68.7077C217.239 72.8992 223.118 77.743 228.745 82.8572C240.119 93.1921 250.501 104.519 261.633 115.086C272.243 125.157 283.784 134.607 297.084 140.901C309.809 146.925 323.895 150.336 337.973 150.645C345.033 150.817 352.088 150.127 358.981 148.59C365.936 147.021 372.41 144.388 378.681 141.037C380.22 140.214 381.763 139.45 383.251 138.531C383.579 138.326 383.854 138.801 383.559 139.023L383.563 139.025Z" fill="#004AB8"/>
<path d="M152.374 53.4347C153.43 53.6179 154.518 53.7441 155.551 54.0329C156.617 54.335 157.679 54.6446 158.734 54.9834C160.872 55.6732 163.009 56.3779 165.13 57.1172C167.319 57.8803 169.495 58.6812 171.647 59.5356C173.799 60.3901 175.893 61.3658 177.958 62.3912C180.228 63.5005 182.399 64.8001 184.449 66.2762C184.704 66.4637 184.406 66.8489 184.139 66.7173C180.089 64.7048 176.016 62.757 171.8 61.1134C169.687 60.2918 167.594 59.4567 165.467 58.6894C163.339 57.9221 161.208 57.2073 159.071 56.5009C157.897 56.1136 156.759 55.7262 155.589 55.3176C155.291 55.2056 154.969 55.1149 154.667 54.9824C154.364 54.8499 154.11 54.7145 153.837 54.5887C153.302 54.3339 152.765 54.0774 152.227 53.8193C152 53.7125 152.142 53.3842 152.372 53.4245L152.374 53.4347Z" fill="#004AB8"/>
<path d="M156.732 46.1372C157.049 46.137 157.342 46.0808 157.661 46.0935C157.98 46.1062 158.322 46.1357 158.654 46.1697C159.292 46.2503 159.922 46.3858 160.536 46.5748C161.832 46.9632 163.089 47.4682 164.293 48.0836C166.766 49.3078 169.108 50.7742 171.428 52.2749C172.07 52.6902 172.715 53.1035 173.365 53.5066C173.677 53.7026 173.99 53.8948 174.307 54.0833C174.645 54.2909 174.969 54.5223 175.275 54.7757C175.666 55.09 175.3 55.8329 174.809 55.664C174.476 55.5617 174.153 55.4303 173.843 55.2713C173.566 55.1164 173.287 54.9599 173.011 54.7996C172.436 54.4675 171.865 54.1306 171.297 53.7889C170.12 53.0811 168.956 52.352 167.786 51.6304C166.617 50.9088 165.457 50.2202 164.251 49.5829C163.086 48.9661 161.885 48.4309 160.664 47.9334C160.022 47.6737 159.362 47.4888 158.683 47.2502C158.371 47.1394 158.037 47.0361 157.711 46.9459C157.524 46.9118 157.34 46.8621 157.161 46.7973C157.007 46.7229 156.843 46.6719 156.674 46.6461C156.614 46.6304 156.561 46.5937 156.526 46.5427C156.49 46.4918 156.474 46.4298 156.48 46.3679C156.486 46.3061 156.514 46.2484 156.559 46.2053C156.603 46.1622 156.662 46.1365 156.724 46.1327L156.732 46.1372Z" fill="#004AB8"/>
<path d="M255.407 121.108C256.487 122.299 257.344 123.676 258.274 124.988C259.204 126.3 260.133 127.59 261.079 128.881C262.915 131.384 264.801 133.846 266.737 136.267C270.446 140.963 274.429 145.436 278.665 149.664C282.781 153.754 287.215 157.511 291.925 160.901C296.751 164.346 301.892 167.328 307.278 169.806C313.124 172.481 319.155 174.73 325.325 176.534C326.138 176.774 326.951 177.008 327.76 177.259C327.799 177.273 327.832 177.3 327.852 177.336C327.872 177.372 327.878 177.414 327.869 177.454C327.859 177.494 327.836 177.53 327.802 177.553C327.768 177.577 327.727 177.587 327.686 177.582C324.393 176.966 321.145 176.128 317.965 175.073C314.924 174.104 311.937 172.975 309.015 171.691C303.513 169.23 298.24 166.287 293.257 162.896C288.43 159.601 283.88 155.918 279.65 151.884C275.338 147.756 271.288 143.363 267.523 138.731C263.52 133.848 259.812 128.721 256.246 123.517C255.781 122.858 255.362 122.168 254.995 121.451C254.87 121.201 255.185 120.862 255.407 121.108Z" fill="#004AB8"/>
<path d="M447.213 97.9708C447.158 97.8163 447.096 97.6631 447.034 97.51C446.985 97.3835 447.044 97.5264 447.019 97.4854C446.993 97.4444 446.966 97.441 446.938 97.4193C446.884 97.3732 446.83 97.3298 446.778 97.2913L447.003 97.4087L446.955 97.402C446.856 97.379 446.764 97.3303 446.69 97.2607C446.615 97.1912 446.56 97.1032 446.531 97.0057C446.491 96.8983 446.611 97.1336 446.55 97.0369L446.519 96.9877C446.494 96.9467 446.468 96.9057 446.442 96.8648C446.391 96.7828 446.349 96.6946 446.301 96.6106C446.199 96.4467 446.096 96.2827 445.993 96.1188C445.945 96.0417 445.896 95.9647 445.837 95.8948C445.777 95.825 445.567 95.527 445.772 95.7916C445.681 95.6725 445.585 95.5549 445.491 95.4379C445.451 95.374 445.32 95.2527 445.523 95.4888C445.484 95.449 445.449 95.4046 445.414 95.3628C445.287 95.2142 445.164 95.0879 445.035 94.9543C445.02 94.9426 445.006 94.9301 444.993 94.9166L444.839 94.7324L444.956 94.8759C444.931 94.8365 444.895 94.8044 444.864 94.7691C444.798 94.6964 444.732 94.6237 444.662 94.553C444.406 94.2839 444.133 94.031 443.845 93.7957C443.696 93.6744 443.546 93.5585 443.396 93.4443C443.358 93.4158 443.319 93.3901 443.279 93.36C443.565 93.5757 443.419 93.4594 443.35 93.4113C443.282 93.3632 443.184 93.2988 443.098 93.2453C442.771 93.035 442.434 92.8427 442.086 92.6693C441.739 92.4942 441.384 92.3361 441.021 92.1949L440.88 92.1399C440.654 92.0531 441.061 92.2041 440.948 92.1655C440.835 92.1269 440.756 92.0962 440.657 92.065C440.463 91.9994 440.266 91.9375 440.07 91.8799C439.257 91.6443 438.426 91.4702 437.586 91.3592L437.278 91.3237C437.223 91.3195 437.169 91.3126 437.114 91.3057C436.973 91.2888 437.312 91.3257 437.287 91.3229L436.933 91.2866L436.619 91.2553C437.075 91.3051 436.636 91.2579 436.526 91.2494C436.076 91.2118 435.625 91.1901 435.172 91.1846C434.246 91.1675 433.319 91.2042 432.396 91.2945C431.928 91.3388 431.459 91.3954 430.994 91.4656L430.816 91.4922L430.745 91.5053C430.577 91.5301 431.05 91.4532 430.881 91.4817L430.526 91.5421C430.288 91.5859 430.05 91.6323 429.813 91.6804C427.91 92.0711 426.054 92.6621 424.275 93.4436L424.124 93.5086L424.041 93.5471C424.098 93.516 424.158 93.4888 424.218 93.4656C424.103 93.5352 423.98 93.5922 423.852 93.6357C423.64 93.7371 423.427 93.8428 423.216 93.9501C422.79 94.1669 422.371 94.3963 421.958 94.6385C421.131 95.1197 420.337 95.654 419.581 96.2381C419.398 96.3774 419.219 96.5216 419.041 96.6674C419.371 96.3992 419.112 96.6093 418.992 96.7122L418.714 96.9546C418.372 97.2607 418.04 97.5804 417.716 97.9117C417.391 98.2429 417.088 98.586 416.798 98.9435C416.653 99.1193 416.511 99.2973 416.374 99.4792L416.191 99.7263L416.091 99.8663C415.996 99.999 416.263 99.6167 416.19 99.722L416.124 99.8206C415.617 100.557 415.18 101.338 414.818 102.156C414.727 102.365 414.64 102.572 414.556 102.776L414.533 102.841C414.472 102.998 414.645 102.543 414.586 102.696C414.568 102.744 414.55 102.792 414.534 102.84C414.495 102.952 414.45 103.069 414.42 103.179C414.281 103.61 414.165 104.048 414.072 104.491C413.977 104.946 413.913 105.401 413.86 105.859C413.914 105.392 413.865 105.834 413.854 105.959L413.834 106.317C413.819 106.554 413.818 106.801 413.82 107.045C413.824 107.544 413.854 108.043 413.91 108.539C413.924 108.653 413.937 108.769 413.953 108.882C413.961 108.945 413.971 109.009 413.979 109.073L413.995 109.171C414.029 109.378 413.951 108.908 413.972 109.032C414.016 109.292 414.069 109.551 414.12 109.811C414.369 110.913 414.703 111.994 415.119 113.044C415.229 113.329 415.347 113.612 415.468 113.892L415.554 114.085C415.646 114.292 415.432 113.821 415.539 114.06C415.614 114.221 415.689 114.379 415.766 114.539C416.055 115.127 416.33 115.722 416.632 116.303C416.66 116.347 416.687 116.391 416.705 116.442C416.723 116.492 416.867 116.875 416.761 116.53C416.806 116.668 416.881 116.806 416.929 116.945C416.978 117.084 417.039 117.251 417.094 117.401C417.248 117.732 417.368 118.078 417.451 118.433L417.375 118.18L417.403 118.226C417.474 118.341 417.496 118.478 417.466 118.609C417.436 118.74 417.356 118.855 417.243 118.927C417.128 118.996 416.991 119.017 416.86 118.987C416.73 118.957 416.616 118.877 416.543 118.765L416.514 118.719L416.709 118.899C416.377 118.734 416.09 118.389 415.823 118.138C415.704 118.028 415.586 117.917 415.469 117.803C415.391 117.729 415.017 117.337 415.298 117.614C415.183 117.489 415.079 117.355 414.987 117.213C414.591 116.677 414.229 116.117 413.904 115.535C413.259 114.398 412.731 113.2 412.325 111.957C411.647 109.822 411.414 107.571 411.639 105.343C411.851 103.408 412.458 101.537 413.423 99.8467C414.385 98.1665 415.621 96.6591 417.081 95.3868C418.599 94.0546 420.282 92.9229 422.088 92.0196C423.931 91.0953 425.868 90.3739 427.866 89.8681C429.821 89.3693 431.823 89.0841 433.839 89.0175C435.724 88.9433 437.611 89.1327 439.444 89.5802C441.168 90.0032 442.798 90.7407 444.254 91.7558C444.881 92.1974 445.454 92.7124 445.96 93.2898C446.256 93.6248 446.514 93.991 446.731 94.3819C446.78 94.4606 446.834 94.5458 446.865 94.6315L446.931 94.759C446.94 94.7738 446.951 94.7902 446.961 94.8065C447.07 95.0421 447.077 95.0605 446.992 94.8557L447.014 94.8918C447.105 95.1247 447.221 95.3491 447.31 95.5857C447.445 95.9395 447.519 96.3131 447.648 96.6683C447.678 96.7638 447.681 96.8654 447.659 96.9627C447.637 97.0601 447.589 97.1499 447.521 97.2231L447.493 97.2545L447.609 97.0285L447.558 97.2413C447.552 97.2757 447.542 97.3093 447.529 97.3414C447.498 97.4044 447.507 97.2549 447.525 97.3644C447.558 97.5446 447.581 97.7267 447.601 97.9082C447.62 98.1245 447.302 98.1596 447.23 97.9675L447.213 97.9708Z" fill="#231F20"/>
<path d="M426.985 122.228C426.777 122.112 426.566 121.998 426.349 121.903C426.243 121.858 426.133 121.81 426.036 121.768L425.887 121.709L425.695 121.621C425.59 121.573 425.481 121.527 425.381 121.484C425.331 121.463 425.282 121.446 425.232 121.425C425.141 121.386 425.332 121.46 425.326 121.458C425.227 121.425 425.131 121.387 425.037 121.344C424.823 121.25 424.604 121.145 424.382 121.056C424.284 121.017 424.185 120.983 424.083 120.944C424.356 121.058 424.163 120.972 424.089 120.954L423.915 120.894C423.692 120.819 423.467 120.75 423.239 120.69C422.782 120.566 422.319 120.467 421.851 120.395C421.616 120.36 421.38 120.332 421.143 120.298C421.03 120.28 420.917 120.264 420.803 120.25L420.645 120.231L420.54 120.219C420.407 120.204 420.805 120.242 420.671 120.233C420.192 120.197 419.718 120.17 419.239 120.174C418.759 120.177 418.297 120.205 417.829 120.252C417.588 120.277 417.35 120.308 417.112 120.343L417.032 120.354L417.169 120.332C417.115 120.338 417.063 120.348 417.011 120.36L416.643 120.429C415.694 120.618 414.765 120.895 413.867 121.255L413.545 121.389L413.398 121.453C413.175 121.552 413.632 121.346 413.462 121.413C413.243 121.516 413.028 121.621 412.815 121.732C412.388 121.954 411.967 122.202 411.571 122.459C411.171 122.72 410.784 123.002 410.412 123.302C410.366 123.331 410.21 123.468 410.391 123.315C410.572 123.163 410.391 123.315 410.35 123.341C410.257 123.421 410.164 123.502 410.071 123.585C409.895 123.745 409.724 123.909 409.557 124.076C409.228 124.405 408.917 124.753 408.626 125.116C408.556 125.204 408.485 125.296 408.417 125.386L408.307 125.535C408.274 125.581 408.141 125.77 408.276 125.577C408.411 125.385 408.276 125.577 408.248 125.62L408.16 125.753L407.962 126.064C407.714 126.472 407.491 126.895 407.294 127.33C407.201 127.546 407.102 127.773 407.008 127.996C406.964 128.103 406.917 128.215 406.881 128.32C406.809 128.502 406.977 128.045 406.914 128.231L406.841 128.436C406.678 128.904 406.563 129.373 406.438 129.844C406.367 130.095 406.339 130.345 406.266 130.585C406.192 130.825 406.099 131.073 406.023 131.32C405.936 131.632 405.77 131.917 405.542 132.148C405.457 132.244 405.339 132.305 405.211 132.318C405.083 132.331 404.955 132.297 404.852 132.22C404.372 131.765 404.243 131.06 404.182 130.423C404.171 130.171 404.181 129.919 404.212 129.669C404.233 129.33 404.275 128.993 404.337 128.659C404.551 127.59 404.922 126.558 405.439 125.598C406.471 123.732 407.914 122.124 409.658 120.897C411.35 119.697 413.256 118.834 415.274 118.355C417.355 117.848 419.516 117.756 421.633 118.084C422.662 118.273 423.662 118.599 424.604 119.053C425.547 119.452 426.398 120.041 427.103 120.784C427.27 120.972 427.44 121.155 427.603 121.345C427.698 121.436 427.757 121.556 427.771 121.686C427.784 121.816 427.751 121.947 427.677 122.055C427.602 122.162 427.491 122.239 427.364 122.271C427.236 122.303 427.102 122.288 426.985 122.228Z" fill="#231F20"/>
<path d="M407.232 126.373C406.277 125.738 405.256 125.209 404.188 124.794C404.037 124.736 404.357 124.853 404.167 124.787C404.106 124.765 404.043 124.743 403.981 124.723C403.788 124.656 403.601 124.58 403.411 124.502C403.359 124.482 403.306 124.463 403.254 124.441C403.409 124.496 403.033 124.351 403.254 124.441C403.098 124.386 402.993 124.349 402.861 124.306C402.371 124.146 401.872 124.018 401.366 123.921C401.12 123.874 400.873 123.835 400.624 123.801L400.255 123.759C400.255 123.759 400.538 123.784 400.371 123.77L400.293 123.765L400.083 123.747C399.584 123.716 399.078 123.692 398.582 123.709C398.079 123.721 397.578 123.76 397.079 123.826L396.712 123.881C396.593 123.898 396.893 123.849 396.869 123.855L396.764 123.873L396.558 123.909C396.313 123.955 396.069 124.007 395.825 124.065C394.816 124.309 393.831 124.64 392.88 125.054C392.776 125.099 392.36 125.291 392.757 125.106L392.404 125.271C392.159 125.387 391.917 125.51 391.676 125.636C391.198 125.887 390.728 126.157 390.268 126.438C389.328 127.02 388.424 127.656 387.559 128.344L387.239 128.602L387.102 128.715C386.951 128.837 387.213 128.622 387.215 128.621C387.182 128.642 387.149 128.662 387.125 128.696C386.906 128.879 386.69 129.067 386.477 129.255C386.056 129.629 385.642 130.007 385.244 130.407C384.442 131.193 383.691 132.027 382.938 132.858C382.564 133.268 382.212 133.696 381.822 134.091C381.433 134.486 381.06 134.868 380.687 135.26C380.555 135.427 380.391 135.565 380.204 135.667C380.034 135.734 379.852 135.77 379.669 135.774C379.531 135.777 379.397 135.735 379.285 135.655C379.173 135.575 379.091 135.46 379.05 135.329C378.999 135.19 378.968 135.044 378.956 134.896C378.975 134.643 379.058 134.398 379.195 134.185C379.324 133.942 379.454 133.701 379.586 133.46C379.895 132.899 380.245 132.361 380.632 131.85C381.335 130.94 382.097 130.077 382.912 129.265C384.576 127.587 386.418 126.094 388.404 124.814C390.296 123.586 392.364 122.653 394.537 122.047C396.672 121.478 398.923 121.289 401.098 121.72C402.206 121.945 403.282 122.306 404.302 122.795C404.845 123.073 405.358 123.404 405.836 123.784C406.299 124.132 406.74 124.508 407.156 124.911C407.376 125.123 407.589 125.343 407.797 125.569C407.883 125.651 407.936 125.761 407.948 125.879C407.96 125.997 407.93 126.115 407.863 126.213C407.796 126.312 407.696 126.383 407.58 126.414C407.465 126.444 407.342 126.431 407.235 126.377L407.232 126.373Z" fill="#231F20"/>
<path d="M423.176 77.4424C422.935 77.396 422.689 77.38 422.443 77.395C422.194 77.4015 421.945 77.3889 421.698 77.3574C421.2 77.3316 420.699 77.3331 420.2 77.317C419.185 77.3015 418.171 77.3689 417.168 77.5185C417.084 77.5274 417.219 77.5092 417.223 77.5088L417.116 77.5261L416.957 77.5545C416.824 77.5786 416.692 77.6044 416.552 77.637C416.306 77.6886 416.06 77.7472 415.817 77.8123C415.327 77.9414 414.843 78.0928 414.364 78.2665C414.125 78.3548 413.889 78.448 413.653 78.5455L413.304 78.6984C413.222 78.7315 413.355 78.6665 413.356 78.6655L413.257 78.7116L413.058 78.8048C412.596 79.0258 412.143 79.2687 411.702 79.5312C411.261 79.7937 410.83 80.0779 410.404 80.3746C410.194 80.5244 409.987 80.6791 409.781 80.8381L409.476 81.0797L409.348 81.1851C409.484 81.0746 409.348 81.1851 409.292 81.234C408.507 81.9015 407.779 82.6339 407.118 83.4234C406.947 83.6285 406.78 83.8359 406.62 84.0461C406.546 84.1401 406.475 84.2348 406.405 84.3311L406.293 84.4863L406.245 84.5526C406.302 84.4688 406.16 84.6721 406.245 84.5526C405.961 84.9773 405.684 85.4022 405.432 85.8456C405.18 86.2889 404.952 86.7377 404.747 87.2001C404.643 87.4291 404.545 87.662 404.454 87.8951L404.386 88.072C404.336 88.2021 404.436 87.9317 404.371 88.1135L404.248 88.4697C403.936 89.4311 403.705 90.4164 403.555 91.4158L403.507 91.7612L403.485 91.9458L403.477 92.0267C403.468 92.1075 403.485 91.9093 403.482 92.0349C403.457 92.279 403.446 92.539 403.436 92.7921C403.417 93.3016 403.409 93.8066 403.434 94.3162C403.446 94.5715 403.412 94.8277 403.4 95.0845C403.386 95.3945 402.911 95.6307 402.748 95.2831C402.614 95.0366 402.506 94.777 402.424 94.5085C402.363 94.2545 402.318 93.9955 402.274 93.7371C402.183 93.1884 402.133 92.6335 402.124 92.0773C402.105 90.9928 402.237 89.9108 402.516 88.8629C403.123 86.7524 404.133 84.7794 405.49 83.0529C406.823 81.3278 408.441 79.8436 410.275 78.6649C412.09 77.4804 414.109 76.6444 416.229 76.1999C417.294 75.9739 418.382 75.8807 419.47 75.9227C420.021 75.9283 420.571 75.9918 421.109 76.1121C421.363 76.1815 421.611 76.2539 421.862 76.341C422.137 76.4119 422.401 76.5182 422.647 76.6572C422.868 76.7943 423.097 76.9168 423.334 77.0238C423.571 77.147 423.423 77.4751 423.18 77.4404L423.176 77.4424Z" fill="#231F20"/>
<path d="M409.111 96.7456C408.914 96.702 408.716 96.6959 408.52 96.6592C408.323 96.6226 408.114 96.5802 407.908 96.547C407.521 96.4862 407.171 96.4426 406.837 96.4192C406.627 96.4047 406.42 96.3839 406.21 96.3555L405.921 96.3199L405.855 96.3133L405.758 96.3052C405.399 96.2747 405.044 96.2577 404.677 96.2662C404.31 96.2747 403.974 96.2889 403.624 96.3252C403.468 96.3412 403.31 96.3626 403.158 96.3894C402.959 96.4155 403.312 96.3589 403.179 96.3761L403.066 96.3965C402.982 96.4108 402.896 96.4277 402.812 96.4463C402.163 96.5649 401.524 96.7362 400.902 96.9585C400.764 97.011 400.627 97.0694 400.49 97.1278C400.309 97.2044 400.665 97.0431 400.541 97.096L400.441 97.1447L400.218 97.2549C399.924 97.4073 399.64 97.5758 399.365 97.7598C399.239 97.8389 399.121 97.9285 399.003 98.0164L398.827 98.1516L398.741 98.2217C398.579 98.3486 398.924 98.0615 398.771 98.2032C398.52 98.4165 398.281 98.6427 398.054 98.8809C397.83 99.1276 397.619 99.3862 397.423 99.6556L397.286 99.8418C397.247 99.8933 397.206 99.9904 397.328 99.7786C397.31 99.8108 397.284 99.8428 397.263 99.8744C397.163 100.021 397.067 100.171 396.976 100.324C396.61 100.946 396.299 101.599 396.048 102.275L396.003 102.396C395.936 102.563 396.052 102.255 396.01 102.37L395.902 102.683C395.836 102.884 395.773 103.085 395.714 103.291C395.592 103.726 395.492 104.168 395.408 104.624C395.325 105.081 395.248 105.563 395.144 106.024C395.086 106.27 395.029 106.515 394.98 106.764C394.918 107.027 394.826 107.283 394.705 107.525C394.57 107.819 394.053 107.872 393.913 107.565C393.782 107.32 393.69 107.057 393.638 106.784C393.604 106.555 393.576 106.321 393.549 106.092C393.496 105.583 393.498 105.071 393.557 104.563C393.648 103.739 393.81 102.924 394.042 102.128C394.498 100.59 395.277 99.1677 396.327 97.9558C397.287 96.8521 398.483 95.9798 399.828 95.4045C401.172 94.8292 402.629 94.5657 404.09 94.6338C404.981 94.6664 405.865 94.8019 406.724 95.0374C407.174 95.1815 407.612 95.3589 408.034 95.5681C408.247 95.6632 408.462 95.7729 408.674 95.8846C408.885 95.9963 409.084 96.15 409.298 96.2763C409.352 96.3067 409.394 96.3554 409.415 96.4137C409.437 96.4721 409.437 96.5361 409.415 96.5944C409.394 96.6527 409.352 96.7015 409.298 96.7319C409.244 96.7623 409.181 96.7724 409.12 96.7604L409.111 96.7456Z" fill="#231F20"/>
<path d="M396.446 99.4772C396.198 99.3634 395.963 99.2238 395.744 99.0608C395.548 98.905 395.352 98.7518 395.152 98.6007C394.952 98.4496 394.789 98.3307 394.605 98.1972L394.456 98.0916C394.602 98.1966 394.446 98.0752 394.416 98.0641C394.261 97.9583 394.112 97.8484 393.96 97.7378L393.714 97.5634C393.889 97.6821 393.594 97.4811 393.542 97.4426C393.351 97.3116 393.152 97.1847 392.958 97.0574C392.574 96.8093 392.177 96.5765 391.783 96.3415C391.034 95.8969 390.259 95.4983 389.462 95.1479C389.263 95.0602 389.063 94.9751 388.863 94.8954C388.779 94.8608 388.695 94.8273 388.611 94.7954L388.461 94.7386C388.633 94.7976 388.203 94.6401 388.461 94.7386C388.072 94.5988 387.681 94.4671 387.284 94.3507C386.495 94.1192 385.71 93.8985 384.9 93.7437C384.517 93.6706 384.13 93.6086 383.74 93.5576L383.437 93.519L383.285 93.5024C383.084 93.4801 383.571 93.5287 383.368 93.5101C383.164 93.4915 382.967 93.4757 382.765 93.4631C381.981 93.4148 381.195 93.4135 380.411 93.4592C380.011 93.4813 379.612 93.5189 379.217 93.5658C379.035 93.5886 378.854 93.613 378.674 93.6391C378.575 93.653 378.192 93.7126 378.619 93.6462L378.274 93.7047C376.728 93.9905 375.219 94.4464 373.774 95.0643L373.496 95.1858L373.357 95.248C373.714 95.09 373.561 95.1544 373.478 95.1928C373.286 95.2809 373.096 95.3706 372.906 95.4645C372.557 95.6373 372.214 95.8182 371.876 96.0074C371.159 96.4086 370.462 96.8481 369.789 97.3155C369.462 97.5453 369.144 97.7812 368.829 98.0246C368.665 98.1526 368.502 98.2822 368.341 98.4151L368.24 98.4987C368.123 98.5926 368.5 98.279 368.341 98.4151C368.248 98.4936 368.153 98.5715 368.062 98.6516C367.437 99.1918 366.837 99.7644 366.267 100.364C365.697 100.963 365.139 101.61 364.622 102.272C364.354 102.613 364.096 102.962 363.843 103.317C363.723 103.49 364.018 103.064 363.894 103.244L363.801 103.38C363.749 103.454 363.698 103.529 363.648 103.606C363.515 103.803 363.383 104 363.257 104.203C362.317 105.687 361.52 107.257 360.877 108.891L360.753 109.211C360.733 109.265 360.714 109.32 360.693 109.373C360.83 109.017 360.748 109.224 360.718 109.304C360.639 109.52 360.564 109.739 360.491 109.958C360.342 110.398 360.223 110.85 360.074 111.29C359.926 111.73 359.794 112.151 359.668 112.586C359.514 113.103 359.328 113.609 359.111 114.102C359.089 114.155 359.068 114.209 359.043 114.261C358.948 114.455 359.13 114.002 359.012 114.32C358.966 114.444 358.914 114.564 358.864 114.684C358.77 114.899 358.689 115.109 358.605 115.324C358.544 115.439 358.447 115.531 358.328 115.585C358.21 115.64 358.077 115.653 357.95 115.625C357.825 115.593 357.712 115.522 357.63 115.422C357.547 115.322 357.499 115.198 357.492 115.069C357.468 114.83 357.446 114.594 357.428 114.354L357.413 114.178C357.408 114.101 357.359 113.972 357.436 114.163C357.392 113.986 357.374 113.803 357.384 113.621C357.366 113.078 357.408 112.534 357.51 112C357.68 111.071 357.921 110.157 358.231 109.264C358.84 107.471 359.621 105.741 360.562 104.097C362.367 100.966 364.769 98.2192 367.631 96.0121C370.279 93.9601 373.337 92.5025 376.599 91.7384C379.911 90.9684 383.36 91.0153 386.65 91.8752C388.378 92.3514 390.032 93.0634 391.566 93.991C391.954 94.2231 392.333 94.4646 392.707 94.7188C392.853 94.8169 392.997 94.9186 393.14 95.0187C392.846 94.8124 393.343 95.1678 393.414 95.2235C393.597 95.3623 393.779 95.5064 393.957 95.6526C394.703 96.2573 395.4 96.9185 396.044 97.6305C396.212 97.8177 396.378 98.006 396.54 98.1963C396.722 98.409 396.871 98.647 396.983 98.9029C397.151 99.2431 396.836 99.6664 396.453 99.4635L396.446 99.4772Z" fill="#231F20"/>
<path d="M387.41 144.162L387.102 144.268L386.966 144.317C386.946 144.329 386.831 144.401 386.891 144.343C386.95 144.285 386.867 144.385 386.854 144.398C386.773 144.481 386.673 144.544 386.563 144.581C386.448 144.632 386.461 144.624 386.367 144.669C386.016 144.835 385.676 145.022 385.347 145.228C385.036 145.424 384.724 145.619 384.433 145.847C384.353 145.897 384.279 145.964 384.206 146.024C384.01 146.176 384.342 145.902 384.157 146.054C384.036 146.16 383.914 146.264 383.786 146.362C383.722 146.402 383.689 146.485 383.844 146.312C383.807 146.348 383.767 146.382 383.726 146.413C383.197 146.881 382.72 147.406 382.304 147.976C382.182 148.146 382.421 147.798 382.344 147.92L382.276 148.019L382.143 148.223C382.047 148.375 381.953 148.532 381.865 148.69C381.694 149 381.522 149.309 381.373 149.628C381.304 149.777 381.239 149.925 381.177 150.073L381.077 150.328C381.06 150.371 381.008 150.506 381.077 150.328C381.146 150.15 381.077 150.328 381.066 150.362C380.946 150.714 380.844 151.071 380.76 151.433C380.678 151.772 380.614 152.114 380.568 152.467C380.555 152.548 380.544 152.63 380.536 152.715C380.528 152.801 380.496 153.088 380.518 152.875C380.54 152.663 380.511 152.964 380.508 153.005L380.489 153.314C380.454 154.03 380.482 154.747 380.572 155.458L380.605 155.707C380.613 155.748 380.62 155.789 380.625 155.829C380.586 155.495 380.597 155.664 380.611 155.746C380.646 155.933 380.681 156.116 380.728 156.297C380.808 156.653 380.903 157.006 381.013 157.356C381.132 157.738 381.26 158.114 381.395 158.487C381.433 158.584 381.471 158.681 381.513 158.776C381.554 158.871 381.715 159.19 381.539 158.846C381.628 159.019 381.712 159.208 381.805 159.385C381.898 159.562 381.996 159.763 382.099 159.948C382.149 160.028 382.201 160.112 382.238 160.196C382.261 160.232 382.283 160.268 382.306 160.304C382.371 160.418 382.422 160.539 382.459 160.665C382.473 160.551 382.36 160.485 382.433 160.587C382.467 160.641 382.501 160.696 382.536 160.751C382.592 160.84 382.648 160.93 382.704 161.019C382.863 161.279 382.957 161.573 382.98 161.878C382.982 161.989 382.959 162.099 382.912 162.201C382.866 162.302 382.797 162.391 382.711 162.462C382.625 162.533 382.525 162.583 382.416 162.609C382.308 162.636 382.195 162.637 382.087 162.613C381.605 162.527 381.255 162.19 380.945 161.831L380.912 161.778C380.734 161.552 380.69 161.504 380.782 161.632L380.82 161.693C380.788 161.667 380.756 161.639 380.724 161.613C380.615 161.5 380.515 161.378 380.425 161.248C380.306 161.095 380.184 160.926 380.072 160.762C379.611 160.048 379.23 159.285 378.937 158.488C378.386 156.998 378.128 155.416 378.175 153.828C378.198 152.18 378.533 150.552 379.162 149.03C379.806 147.549 380.798 146.246 382.054 145.231C382.77 144.648 383.581 144.19 384.451 143.879C384.87 143.728 385.301 143.611 385.738 143.528C386.006 143.475 386.317 143.376 386.59 143.451C386.691 143.478 386.797 143.481 386.899 143.461C387.029 143.446 387.159 143.435 387.291 143.425C387.726 143.392 387.811 144.033 387.411 144.163L387.41 144.162Z" fill="#231F20"/>
<path d="M370.801 159.731C370.487 159.67 370.17 159.62 369.853 159.577L369.422 159.527C369.258 159.509 369.551 159.536 369.39 159.524L369.298 159.516L368.978 159.488C368.884 159.481 368.791 159.468 368.698 159.458C368.652 159.453 368.384 159.427 368.595 159.447C368.437 159.434 368.278 159.418 368.116 159.412C367.801 159.393 367.484 159.383 367.167 159.379C365.905 159.361 364.644 159.443 363.395 159.624L363.277 159.643C363.582 159.598 363.461 159.613 363.395 159.624L363.156 159.666C362.998 159.695 362.841 159.725 362.683 159.757C362.368 159.822 362.055 159.898 361.742 159.975C361.133 160.129 360.527 160.296 359.931 160.499C359.334 160.701 358.739 160.94 358.158 161.197C357.942 161.293 358.436 161.068 358.189 161.177L357.972 161.279C357.828 161.348 357.684 161.418 357.543 161.491C357.258 161.634 356.978 161.785 356.702 161.942C356.167 162.246 355.645 162.575 355.137 162.924C354.879 163.103 354.629 163.29 354.381 163.482L354.053 163.745C353.829 163.926 354.304 163.53 354.089 163.722L353.895 163.887C352.992 164.665 352.174 165.536 351.453 166.486C351.368 166.599 351.286 166.715 351.209 166.825C351.131 166.935 351.411 166.531 351.302 166.69L351.253 166.765L351.104 166.986C350.948 167.225 350.798 167.47 350.654 167.725C350.369 168.225 350.119 168.745 349.904 169.279L349.834 169.463C349.745 169.685 349.95 169.137 349.861 169.389C349.811 169.525 349.766 169.663 349.722 169.8C349.634 170.076 349.555 170.354 349.486 170.633C349.416 170.913 349.36 171.198 349.319 171.489C349.3 171.62 349.277 171.744 349.267 171.88C349.257 172.017 349.239 172.298 349.27 171.823C349.266 171.897 349.257 171.971 349.251 172.044C349.209 172.64 349.214 173.24 349.266 173.835C349.292 174.128 349.333 174.415 349.377 174.705C349.394 174.815 349.453 175.125 349.368 174.66C349.382 174.738 349.394 174.815 349.408 174.893C349.438 175.05 349.47 175.206 349.506 175.361C349.65 175.993 349.871 176.596 350.058 177.215C350.262 177.886 350.497 178.556 350.764 179.204C350.827 179.356 350.895 179.508 350.961 179.658C351.033 179.866 351.054 180.088 351.022 180.305C351.001 180.636 350.706 180.996 350.33 180.873C350.079 180.82 349.845 180.704 349.649 180.538C349.473 180.358 349.315 180.146 349.157 179.953C348.918 179.664 348.69 179.367 348.472 179.06C348.031 178.423 347.677 177.729 347.421 176.997C346.957 175.724 346.714 174.381 346.704 173.026C346.718 170.465 347.488 167.966 348.916 165.841C350.4 163.637 352.361 161.796 354.655 160.453C357.015 159.039 359.631 158.105 362.354 157.705C365.001 157.327 367.747 157.489 370.231 158.541C370.52 158.663 370.807 158.796 371.089 158.937C371.53 159.156 371.264 159.818 370.798 159.726L370.801 159.731Z" fill="#231F20"/>
<path d="M340.621 182.482C340.48 182.548 340.341 182.617 340.202 182.688L340.36 182.516C340.248 182.815 339.91 182.928 339.661 183.091C339.557 183.156 339.461 183.232 339.361 183.306C339.217 183.411 339.408 183.256 339.307 183.34L339.194 183.443C339.12 183.512 339.054 183.584 338.984 183.659L338.875 183.791C338.833 183.843 338.708 183.947 338.859 183.802C338.733 183.955 338.629 184.125 338.551 184.308C338.518 184.369 338.477 184.555 338.418 184.596C338.474 184.561 338.473 184.436 338.427 184.591C338.41 184.64 338.396 184.688 338.382 184.738C338.352 184.848 338.328 184.961 338.307 185.074L338.278 185.264C338.27 185.314 338.263 185.502 338.274 185.283C338.254 185.553 338.248 185.824 338.247 186.097C338.229 186.444 338.179 186.788 338.098 187.126C338.065 187.266 337.987 187.39 337.876 187.481C337.766 187.572 337.629 187.624 337.486 187.629C337.346 187.63 337.209 187.587 337.095 187.507C336.981 187.427 336.894 187.313 336.847 187.182C336.695 186.839 336.605 186.471 336.582 186.097C336.576 185.756 336.597 185.416 336.646 185.079C336.709 184.536 336.879 184.011 337.145 183.533C337.434 183.052 337.847 182.658 338.34 182.391C338.597 182.248 338.865 182.126 339.141 182.026C339.472 181.905 339.835 181.751 340.172 181.926L339.832 181.885C339.986 181.848 340.14 181.813 340.296 181.781C340.386 181.755 340.481 181.761 340.566 181.8C340.651 181.838 340.719 181.905 340.758 181.99C340.798 182.076 340.804 182.173 340.777 182.264C340.749 182.354 340.69 182.431 340.609 182.481L340.621 182.482Z" fill="#231F20"/>
<path d="M301.171 191.033C300.925 191.179 300.67 191.311 300.409 191.427C300.177 191.517 299.946 191.607 299.717 191.705L299.538 191.783C299.504 191.805 299.325 191.88 299.463 191.816C299.601 191.753 299.402 191.854 299.372 191.86L299.175 191.954C298.955 192.059 298.739 192.174 298.521 192.281C297.584 192.745 296.684 193.28 295.83 193.882C295.395 194.183 294.972 194.503 294.563 194.838L294.425 194.952C294.756 194.683 294.55 194.846 294.477 194.919C294.304 195.066 294.131 195.209 293.955 195.351C293.805 195.475 294.222 195.127 294.011 195.316L293.875 195.431L293.568 195.699C292.785 196.399 292.059 197.16 291.396 197.974C291.24 198.167 291.088 198.361 290.94 198.559L290.71 198.877C290.599 199.031 290.918 198.575 290.773 198.784L290.657 198.963C290.38 199.374 290.123 199.798 289.888 200.235C289.658 200.659 289.447 201.095 289.261 201.541C289.215 201.647 289.168 201.757 289.126 201.854L289.069 202.004C289.241 201.549 289.138 201.815 289.1 201.923C289.024 202.144 288.954 202.366 288.892 202.592C288.768 203.037 288.675 203.49 288.613 203.947L288.591 204.123C288.563 204.369 288.612 203.882 288.606 203.982C288.599 204.082 288.589 204.221 288.58 204.334C288.57 204.561 288.567 204.791 288.573 205.023C288.577 205.249 288.59 205.469 288.619 205.705C288.631 205.815 288.641 205.919 288.662 206.036C288.7 206.304 288.611 205.757 288.641 205.914L288.675 206.089C288.767 206.551 288.898 207.003 289.067 207.443C289.111 207.561 289.159 207.674 289.208 207.788C289.308 208.029 289.101 207.563 289.147 207.657C289.185 207.718 289.207 207.786 289.237 207.852C289.343 208.08 289.457 208.303 289.581 208.522C289.843 208.984 290.14 209.424 290.471 209.839C290.504 209.892 290.549 209.939 290.592 209.992C290.699 210.123 290.353 209.71 290.555 209.933C290.652 210.045 290.752 210.156 290.848 210.27C291.043 210.497 291.241 210.708 291.456 210.93C291.67 211.152 291.905 211.37 292.139 211.579C292.373 211.789 292.604 212.044 292.84 212.282C293.004 212.436 293.154 212.604 293.289 212.784C293.422 212.987 293.492 213.225 293.49 213.468C293.491 213.605 293.448 213.739 293.368 213.85C293.288 213.961 293.174 214.044 293.044 214.086C292.56 214.28 292.12 214.106 291.67 213.894C291.294 213.719 290.934 213.511 290.595 213.272C290.075 212.91 289.581 212.513 289.117 212.083C288.636 211.617 288.198 211.109 287.807 210.566C287.489 210.146 287.208 209.698 286.968 209.228C285.982 207.228 285.691 204.956 286.142 202.772C286.571 200.617 287.641 198.67 288.988 196.953C290.373 195.189 292.054 193.68 293.957 192.493C295.802 191.314 297.841 190.468 299.979 189.995C300.27 189.947 300.565 189.929 300.859 189.941C301.415 189.944 301.756 190.76 301.197 191.053L301.171 191.033Z" fill="#231F20"/>
<path d="M430.679 131.542C430.65 131.496 430.631 131.444 430.606 131.396C430.606 131.396 430.533 131.243 430.574 131.308C430.501 131.192 430.393 131.107 430.327 130.984C430.194 130.729 430.084 130.451 429.974 130.191C429.774 129.753 429.613 129.298 429.496 128.831C429.258 127.787 429.105 126.727 429.035 125.659C428.913 123.516 429.043 121.365 429.422 119.252C429.796 117.19 430.437 115.09 431.48 113.264C432.501 111.431 433.932 109.859 435.66 108.668C436.667 107.997 437.774 107.491 438.939 107.168C439.593 106.989 440.265 106.885 440.942 106.858C441.266 106.842 441.59 106.84 441.915 106.847C442.286 106.859 442.654 106.915 443.011 107.015C443.104 107.039 443.185 107.092 443.245 107.167C443.304 107.241 443.338 107.333 443.341 107.428C443.345 107.523 443.317 107.617 443.262 107.695C443.208 107.773 443.13 107.831 443.039 107.861C442.763 107.962 442.481 108.046 442.195 108.114C441.914 108.171 441.633 108.238 441.355 108.311C440.844 108.45 440.349 108.636 439.846 108.801C439.592 108.88 439.342 108.968 439.097 109.062L438.794 109.187L438.614 109.265C438.516 109.308 438.534 109.301 438.667 109.232L438.55 109.287C438.115 109.493 437.692 109.724 437.282 109.977C436.864 110.239 436.487 110.548 436.086 110.834C436.356 110.642 436.086 110.834 436.016 110.898L435.747 111.142C435.57 111.305 435.399 111.476 435.234 111.653C434.907 111.998 434.601 112.362 434.318 112.743C434.251 112.833 434.189 112.927 434.12 113.013C434.339 112.739 434.085 113.07 434.037 113.143C433.902 113.347 433.772 113.554 433.649 113.766C433.152 114.604 432.727 115.482 432.376 116.391L432.31 116.566C432.421 116.303 432.352 116.451 432.328 116.519L432.213 116.849C432.135 117.089 432.059 117.331 431.985 117.578C431.838 118.072 431.714 118.57 431.605 119.073C431.495 119.576 431.41 120.049 431.334 120.54C431.3 120.776 431.268 121.013 431.238 121.25L431.194 121.646C431.186 121.72 431.201 121.92 431.194 121.646C431.195 121.732 431.177 121.823 431.171 121.907C431.086 122.912 431.058 123.921 431.087 124.928C431.114 126.032 431.164 127.139 431.284 128.23C431.342 128.749 431.36 129.265 431.374 129.788C431.38 130.038 431.392 130.289 431.407 130.539C431.424 130.832 431.369 131.05 431.392 131.325C431.426 131.699 430.853 131.892 430.675 131.546L430.679 131.542Z" fill="#231F20"/>
</g>
</svg>
